<svg xmlns="http://www.w3.org/2000/svg" xmlns:xlink="http://www.w3.org/1999/xlink"><symbol id="cloud" width="96" height="96" viewBox="0 0 96 96"><defs><clipPath id="b"><path d="M922.177 544.87c-.053.001-.105.003-.159.003a8.288 8.288 0 0 1 0-16.575h20.6a6.696 6.696 0 1 1 0 13.393c-.023 0-.045-.004-.069-.004-.596 5.34-5.122 9.493-10.622 9.493-4.341 0-8.077-2.591-9.75-6.31"/></clipPath><clipPath id="a"><path d="M-928.4 415.09H900.255V-528.3H-928.4z"/></clipPath><linearGradient id="c" x2="1" gradientTransform="scale(28.74394 -28.74394) rotate(-45 -6.055 -47.829)" gradientUnits="userSpaceOnUse"><stop offset="0" stop-color="#d0e8f8"/><stop offset="1" stop-color="#e2eef9"/></linearGradient></defs><g clip-path="url(#a)" transform="matrix(1.33333 0 0 -1.33333 64.726 72.292)"><path fill="#fff" d="M0 0c5.889 0 10.664 4.774 10.664 10.664 0 5.889-4.775 10.664-10.664 10.664-.037 0-.072-.006-.109-.006-.949 8.504-8.158 15.116-16.915 15.116-6.915 0-12.864-4.125-15.528-10.048-.085.002-.168.006-.253.006-7.289 0-13.198-5.909-13.198-13.198C-46.003 5.909-40.094 0-32.805 0"/></g><g clip-path="url(#b)" transform="matrix(1.33333 0 0 -1.33333 -1173.141 776.69)"><path fill="url(#c)" d="M922.177 544.87c-.053.001-.105.003-.159.003a8.288 8.288 0 0 1 0-16.575h20.6a6.696 6.696 0 1 1 0 13.393c-.023 0-.045-.004-.069-.004-.596 5.34-5.122 9.493-10.622 9.493-4.341 0-8.077-2.591-9.75-6.31"/></g><path fill="none" d="M.003-.003h96v96h-96z" paint-order="stroke fill markers"/><path fill="none" d="M.003-.003h96v96h-96z" paint-order="stroke fill markers"/></symbol></svg>