<svg xmlns="http://www.w3.org/2000/svg" xmlns:xlink="http://www.w3.org/1999/xlink" width="96" height="96"><defs><linearGradient id="e" x2="1" gradientTransform="scale(25.92643 -25.92643) rotate(-45 6.2 -47.7)" gradientUnits="userSpaceOnUse"><stop offset="0" stop-color="#fdb727"/><stop offset="1" stop-color="#ffce22"/></linearGradient><linearGradient id="f" x2="1" gradientTransform="scale(28.74394 -28.74394) rotate(-45 6.543 -42.61)" gradientUnits="userSpaceOnUse"><stop offset="0" stop-color="#d0e8f8"/><stop offset="1" stop-color="#e2eef9"/></linearGradient><linearGradient id="a" x2="1" gradientTransform="matrix(13 0 0 -13 739.955 219.454)" gradientUnits="userSpaceOnUse"><stop offset="0" stop-color="#00aeef"/><stop offset="1" stop-color="#00bdf2"/></linearGradient><linearGradient id="b" x2="1" gradientTransform="matrix(18 0 0 -18 756.455 219.454)" gradientUnits="userSpaceOnUse"><stop offset="0" stop-color="#00aeef"/><stop offset="1" stop-color="#00bdf2"/></linearGradient><linearGradient id="c" x2="1" gradientTransform="matrix(23 0 0 -23 739.955 211.454)" gradientUnits="userSpaceOnUse"><stop offset="0" stop-color="#00aeef"/><stop offset="1" stop-color="#00bdf2"/></linearGradient><linearGradient id="d" x2="1" gradientTransform="matrix(18 0 0 -18 766.455 211.454)" gradientUnits="userSpaceOnUse"><stop offset="0" stop-color="#00aeef"/><stop offset="1" stop-color="#00bdf2"/></linearGradient><linearGradient id="h" x2="1" gradientTransform="matrix(13 0 0 -13 739.955 219.454)" gradientUnits="userSpaceOnUse" xlink:href="#a"/><linearGradient id="j" x2="1" gradientTransform="matrix(18 0 0 -18 756.455 219.454)" gradientUnits="userSpaceOnUse" xlink:href="#b"/><linearGradient id="l" x2="1" gradientTransform="matrix(23 0 0 -23 739.955 211.454)" gradientUnits="userSpaceOnUse" xlink:href="#c"/><linearGradient id="n" x2="1" gradientTransform="matrix(18 0 0 -18 766.455 211.454)" gradientUnits="userSpaceOnUse" xlink:href="#d"/><linearGradient id="p" x2="1" gradientTransform="scale(25.92643 -25.92643) rotate(-45 6.2 -47.7)" gradientUnits="userSpaceOnUse" xlink:href="#e"/><linearGradient id="s" x2="1" gradientTransform="scale(28.74394 -28.74394) rotate(-45 6.543 -42.61)" gradientUnits="userSpaceOnUse" xlink:href="#f"/><clipPath id="g"><path d="M741.455 220.954a1.5 1.5 0 1 1 0-3h10a1.5 1.5 0 1 1 0 3z"/></clipPath><clipPath id="i"><path d="M757.955 220.954a1.5 1.5 0 0 1-1.501-1.5c0-.828.673-1.5 1.501-1.5h15a1.5 1.5 0 1 1 0 3z"/></clipPath><clipPath id="k"><path d="M741.455 212.954a1.5 1.5 0 1 1 0-3h20a1.5 1.5 0 1 1 0 3z"/></clipPath><clipPath id="m"><path d="M767.955 212.954a1.5 1.5 0 0 1-1.501-1.5c0-.828.673-1.5 1.501-1.5h15a1.5 1.5 0 1 1 0 3z"/></clipPath><clipPath id="o"><path d="M917.757 257.718c0-7.159 5.805-12.964 12.964-12.964 7.159 0 12.963 5.805 12.963 12.964 0 7.159-5.804 12.962-12.963 12.962-7.159 0-12.964-5.803-12.964-12.962"/></clipPath><clipPath id="q"><path d="M0 943.388h1828.656V0H0z"/></clipPath><clipPath id="r"><path d="M922.177 244.882c-.053.001-.105.003-.159.003a8.287 8.287 0 0 1 0-16.574h20.6a6.696 6.696 0 0 1 0 13.392c-.023 0-.045-.003-.069-.003-.596 5.34-5.122 9.493-10.622 9.493-4.341 0-8.077-2.591-9.75-6.311"/></clipPath></defs><g clip-path="url(#g)" transform="matrix(1.33333 0 0 -1.33333 -969.94 367.51)"><path fill="url(#h)" d="M741.455 220.954a1.5 1.5 0 1 1 0-3h10a1.5 1.5 0 1 1 0 3z"/></g><g clip-path="url(#i)" transform="matrix(1.33333 0 0 -1.33333 -969.94 367.51)"><path fill="url(#j)" d="M757.955 220.954a1.5 1.5 0 0 1-1.501-1.5c0-.828.673-1.5 1.501-1.5h15a1.5 1.5 0 1 1 0 3z"/></g><g clip-path="url(#k)" transform="matrix(1.33333 0 0 -1.33333 -969.94 367.51)"><path fill="url(#l)" d="M741.455 212.954a1.5 1.5 0 1 1 0-3h20a1.5 1.5 0 1 1 0 3z"/></g><g clip-path="url(#m)" transform="matrix(1.33333 0 0 -1.33333 -969.94 367.51)"><path fill="url(#n)" d="M767.955 212.954a1.5 1.5 0 0 1-1.501-1.5c0-.828.673-1.5 1.501-1.5h15a1.5 1.5 0 1 1 0 3z"/></g><g clip-path="url(#o)" transform="matrix(1.33333 0 0 -1.33333 -1173.141 369.335)"><path fill="url(#p)" d="M917.757 257.718c0-7.159 5.805-12.964 12.964-12.964 7.159 0 12.963 5.805 12.963 12.964 0 7.159-5.804 12.962-12.963 12.962-7.159 0-12.964-5.803-12.964-12.962"/></g><g clip-path="url(#q)" transform="matrix(1.33333 0 0 -1.33333 -1173.141 369.335)"><path fill="#fff" d="M928.4 228.31c5.89 0 10.664 4.775 10.664 10.665 0 5.89-4.775 10.664-10.664 10.664-.037 0-.072-.005-.109-.006-.949 8.504-8.158 15.117-16.915 15.117-6.915 0-12.864-4.126-15.528-10.048-.085 0-.168.005-.253.005-7.289 0-13.198-5.91-13.198-13.198 0-7.29 5.91-13.198 13.198-13.198"/></g><g clip-path="url(#r)" transform="matrix(1.33333 0 0 -1.33333 -1173.141 369.335)"><path fill="url(#s)" d="M922.177 244.882c-.053.001-.105.003-.159.003a8.287 8.287 0 0 1 0-16.574h20.6a6.696 6.696 0 0 1 0 13.392c-.023 0-.045-.003-.069-.003-.596 5.34-5.122 9.493-10.622 9.493-4.341 0-8.077-2.591-9.75-6.311"/></g><path fill="none" d="M0-.003h96v96H0z" paint-order="stroke fill markers"/></svg>