<svg xmlns="http://www.w3.org/2000/svg" xmlns:xlink="http://www.w3.org/1999/xlink" width="96" height="96"><defs><linearGradient id="a" x2="1" gradientTransform="matrix(13 0 0 -13 739.955 219.454)" gradientUnits="userSpaceOnUse"><stop offset="0" stop-color="#00aeef"/><stop offset="1" stop-color="#00bdf2"/></linearGradient><linearGradient id="b" x2="1" gradientTransform="matrix(18 0 0 -18 756.455 219.454)" gradientUnits="userSpaceOnUse"><stop offset="0" stop-color="#00aeef"/><stop offset="1" stop-color="#00bdf2"/></linearGradient><linearGradient id="c" x2="1" gradientTransform="matrix(23 0 0 -23 739.955 211.454)" gradientUnits="userSpaceOnUse"><stop offset="0" stop-color="#00aeef"/><stop offset="1" stop-color="#00bdf2"/></linearGradient><linearGradient id="d" x2="1" gradientTransform="matrix(18 0 0 -18 766.455 211.454)" gradientUnits="userSpaceOnUse"><stop offset="0" stop-color="#00aeef"/><stop offset="1" stop-color="#00bdf2"/></linearGradient><linearGradient id="g" x2="1" gradientTransform="matrix(13 0 0 -13 739.955 219.454)" gradientUnits="userSpaceOnUse" xlink:href="#a"/><linearGradient id="i" x2="1" gradientTransform="matrix(18 0 0 -18 756.455 219.454)" gradientUnits="userSpaceOnUse" xlink:href="#b"/><linearGradient id="k" x2="1" gradientTransform="matrix(23 0 0 -23 739.955 211.454)" gradientUnits="userSpaceOnUse" xlink:href="#c"/><linearGradient id="m" x2="1" gradientTransform="matrix(18 0 0 -18 766.455 211.454)" gradientUnits="userSpaceOnUse" xlink:href="#d"/><clipPath id="e"><path d="M0 943.388h1828.656V0H0z"/></clipPath><clipPath id="f"><path d="M741.455 220.954a1.5 1.5 0 1 1 0-3h10a1.5 1.5 0 1 1 0 3z"/></clipPath><clipPath id="h"><path d="M757.955 220.954a1.5 1.5 0 0 1-1.501-1.5c0-.828.673-1.5 1.501-1.5h15a1.5 1.5 0 1 1 0 3z"/></clipPath><clipPath id="j"><path d="M741.455 212.954a1.5 1.5 0 1 1 0-3h20a1.5 1.5 0 1 1 0 3z"/></clipPath><clipPath id="l"><path d="M767.955 212.954a1.5 1.5 0 0 1-1.501-1.5c0-.828.673-1.5 1.501-1.5h15a1.5 1.5 0 1 1 0 3z"/></clipPath></defs><g clip-path="url(#e)" transform="matrix(1.33333 0 0 -1.33333 -964.217 364.43)"><path fill="#fff" d="M776.833 228.252c5.889 0 10.664 4.774 10.664 10.664s-4.775 10.663-10.664 10.663c-.037 0-.073-.005-.11-.005-.948 8.504-8.157 15.116-16.914 15.116-6.916 0-12.864-4.125-15.53-10.048-.083.002-.166.006-.251.006-7.29 0-13.198-5.909-13.198-13.198 0-7.289 5.909-13.198 13.198-13.198"/></g><g clip-path="url(#f)" transform="matrix(1.33333 0 0 -1.33333 -964.217 364.43)"><path fill="url(#g)" d="M741.455 220.954a1.5 1.5 0 1 1 0-3h10a1.5 1.5 0 1 1 0 3z"/></g><g clip-path="url(#h)" transform="matrix(1.33333 0 0 -1.33333 -964.217 364.43)"><path fill="url(#i)" d="M757.955 220.954a1.5 1.5 0 0 1-1.501-1.5c0-.828.673-1.5 1.501-1.5h15a1.5 1.5 0 1 1 0 3z"/></g><g clip-path="url(#j)" transform="matrix(1.33333 0 0 -1.33333 -964.217 364.43)"><path fill="url(#k)" d="M741.455 212.954a1.5 1.5 0 1 1 0-3h20a1.5 1.5 0 1 1 0 3z"/></g><g clip-path="url(#l)" transform="matrix(1.33333 0 0 -1.33333 -964.217 364.43)"><path fill="url(#m)" d="M767.955 212.954a1.5 1.5 0 0 1-1.501-1.5c0-.828.673-1.5 1.501-1.5h15a1.5 1.5 0 1 1 0 3z"/></g><path fill="none" d="M-.004.003h96v96h-96z" paint-order="stroke fill markers"/></svg>