<svg xmlns="http://www.w3.org/2000/svg" xmlns:xlink="http://www.w3.org/1999/xlink" width="96" height="96"><defs><clipPath id="b"><path d="M1348.684 682.253l-6.499-11.256a2 2 0 0 1 .732-2.732 1.998 1.998 0 0 1 2.732.732l6.499 11.256c.552.957.224 2.18-.732 2.733a2 2 0 0 1-2.732-.733"/></clipPath><clipPath id="c"><path d="M299.226 529.637l-5.267-9.121c-.825-1.429-.154-2.499 1.492-2.378l4.302.316c1.645.121 2.347-.966 1.56-2.416l-4.786-8.806c-.787-1.45-.389-1.779.885-.73l17.302 14.229c1.274 1.048.968 1.837-.679 1.752l-6.611-.338c-1.648-.085-2.321 1.015-1.497 2.444l2.91 5.04c.825 1.429.15 2.599-1.5 2.6l-3.611.004c-1.651.002-3.676-1.166-4.5-2.596"/></clipPath><clipPath id="e"><path d="M-928.4 715.077H900.255V-228.31H-928.4z"/></clipPath><clipPath id="f"><path d="M922.177 244.882c-.053 0-.105.003-.159.003a8.287 8.287 0 0 1 0-16.574h20.6a6.696 6.696 0 0 1 0 13.392c-.023 0-.045-.003-.069-.003-.596 5.34-5.122 9.493-10.622 9.493-4.341 0-8.077-2.591-9.75-6.311"/></clipPath><clipPath id="g"><path d="M895.908 219.964l-2.887-5a2 2 0 0 1 .732-2.732 1.999 1.999 0 0 1 2.732.732l2.888 5a2 2 0 0 1-.733 2.732 1.996 1.996 0 0 1-2.732-.732"/></clipPath><clipPath id="h"><path d="M1348.684 682.253l-6.499-11.256a2 2 0 0 1 .732-2.732 1.998 1.998 0 0 1 2.732.732l6.499 11.256c.552.957.224 2.18-.732 2.733a2 2 0 0 1-2.732-.733"/></clipPath><clipPath id="i"><path d="M1348.684 682.253l-6.499-11.256a2 2 0 0 1 .732-2.732 1.998 1.998 0 0 1 2.732.732l6.499 11.256c.552.957.224 2.18-.732 2.733a2 2 0 0 1-2.732-.733"/></clipPath><linearGradient id="a" x2="1" gradientTransform="scale(27.16368 -27.16368) rotate(-45 -17.3 -22.364)" gradientUnits="userSpaceOnUse"><stop offset="0" stop-color="#fdb727"/><stop offset="1" stop-color="#ffce22"/></linearGradient><linearGradient id="d" x2="1" gradientTransform="scale(27.16368 -27.16368) rotate(-45 -17.3 -22.364)" gradientUnits="userSpaceOnUse" xlink:href="#a"/></defs><path fill="none" d="M0-.003h96v96H0z" paint-order="stroke fill markers"/><g fill="#fff" clip-path="url(#b)" transform="matrix(1.33333 0 0 -1.33333 -1772.028 975.367)"><path d="M1348.684 682.253l-6.499-11.256a2 2 0 0 1 .732-2.732 1.998 1.998 0 0 1 2.732.732l6.499 11.256c.552.957.224 2.18-.732 2.733a2 2 0 0 1-2.732-.733"/></g><g clip-path="url(#c)" transform="matrix(1.33333 0 0 -1.33333 -350.877 758.613)"><path fill="url(#d)" d="M299.226 529.637l-5.267-9.121c-.825-1.429-.154-2.499 1.492-2.378l4.302.316c1.645.121 2.347-.966 1.56-2.416l-4.786-8.806c-.787-1.45-.389-1.779.885-.73l17.302 14.229c1.274 1.048.968 1.837-.679 1.752l-6.611-.338c-1.648-.085-2.321 1.015-1.497 2.444l2.91 5.04c.825 1.429.15 2.599-1.5 2.6l-3.611.004c-1.651.002-3.676-1.166-4.5-2.596"/></g><g fill="#647179" clip-path="url(#e)" transform="matrix(1.33333 0 0 -1.33333 65.92 59.881)"><path d="M0 0c5.889 0 10.664 4.774 10.664 10.664S5.889 21.328 0 21.328c-.037 0-.072-.005-.109-.006-.949 8.504-8.158 15.117-16.915 15.117-6.915 0-12.864-4.126-15.528-10.048-.085.001-.168.005-.253.005-7.289 0-13.198-5.909-13.198-13.198C-46.003 5.909-40.094 0-32.805 0"/></g><g fill="#d2e9f8" clip-path="url(#f)" transform="matrix(1.33333 0 0 -1.33333 -1171.947 364.295)"><path d="M922.177 244.882c-.053.001-.105.003-.159.003a8.287 8.287 0 0 1 0-16.574h20.6a6.696 6.696 0 0 1 0 13.392c-.023 0-.045-.003-.069-.003-.596 5.34-5.122 9.493-10.622 9.493-4.341 0-8.077-2.591-9.75-6.311"/></g><g fill="#fff" clip-path="url(#g)" transform="matrix(1.33333 0 0 -1.33333 -1158.735 367.152)"><path d="M895.908 219.964l-2.887-5a2 2 0 0 1 .732-2.732 1.999 1.999 0 0 1 2.732.732l2.888 5a2 2 0 0 1-.733 2.732 1.996 1.996 0 0 1-2.732-.732"/></g><g fill="#fff" clip-path="url(#h)" transform="matrix(1.33333 0 0 -1.33333 -1787.028 975.367)"><path d="M1348.684 682.253l-6.499-11.256a2 2 0 0 1 .732-2.732 1.998 1.998 0 0 1 2.732.732l6.499 11.256c.552.957.224 2.18-.732 2.733a2 2 0 0 1-2.732-.733"/></g><g fill="#fff" clip-path="url(#i)" transform="matrix(1.33333 0 0 -1.33333 -1723.028 975.367)"><path d="M1348.684 682.253l-6.499-11.256a2 2 0 0 1 .732-2.732 1.998 1.998 0 0 1 2.732.732l6.499 11.256c.552.957.224 2.18-.732 2.733a2 2 0 0 1-2.732-.733"/></g></svg>