<svg xmlns="http://www.w3.org/2000/svg" xmlns:xlink="http://www.w3.org/1999/xlink" width="96" height="96"><defs><clipPath id="c"><path d="M312.685 556.184c0-7.16 5.804-12.963 12.964-12.963 7.158 0 12.963 5.803 12.963 12.963 0 7.159-5.805 12.963-12.963 12.963-7.16 0-12.964-5.804-12.964-12.963"/></clipPath><clipPath id="e"><path d="M1348.684 682.253l-6.499-11.256a2 2 0 0 1 .732-2.732 1.998 1.998 0 0 1 2.732.732l6.499 11.256c.552.957.224 2.18-.732 2.733a2 2 0 0 1-2.732-.733"/></clipPath><clipPath id="f"><path d="M299.226 529.637l-5.267-9.121c-.825-1.429-.154-2.499 1.492-2.378l4.302.316c1.645.121 2.347-.966 1.56-2.416l-4.786-8.806c-.787-1.45-.389-1.779.885-.73l17.302 14.229c1.274 1.048.968 1.837-.679 1.752l-6.611-.338c-1.648-.085-2.321 1.015-1.497 2.444l2.91 5.04c.825 1.429.15 2.599-1.5 2.6l-3.611.004c-1.651.002-3.676-1.166-4.5-2.596"/></clipPath><clipPath id="h"><path d="M922.177 244.882h-.159a8.287 8.287 0 0 1 0-16.574h20.6a6.696 6.696 0 0 1 0 13.392h-.069c-.596 5.34-5.122 9.493-10.622 9.493-4.341 0-8.077-2.591-9.75-6.311"/></clipPath><clipPath id="i"><path d="M895.908 219.964l-2.887-5a2 2 0 0 1 .732-2.732 1.999 1.999 0 0 1 2.732.732l2.888 5a2 2 0 0 1-.733 2.732 1.996 1.996 0 0 1-2.732-.732"/></clipPath><clipPath id="j"><path d="M1348.684 682.253l-6.499-11.256a2 2 0 0 1 .732-2.732 1.998 1.998 0 0 1 2.732.732l6.499 11.256c.552.957.224 2.18-.732 2.733a2 2 0 0 1-2.732-.733"/></clipPath><clipPath id="k"><path d="M1348.684 682.253l-6.499-11.256a2 2 0 0 1 .732-2.732 1.998 1.998 0 0 1 2.732.732l6.499 11.256c.552.957.224 2.18-.732 2.733a2 2 0 0 1-2.732-.733"/></clipPath><linearGradient id="a" x2="1" gradientTransform="scale(25.92643 -25.92643) rotate(-45 -19.365 -25.284)" gradientUnits="userSpaceOnUse"><stop offset="0" stop-color="#fdb727"/><stop offset="1" stop-color="#ffce22"/></linearGradient><linearGradient id="b" x2="1" gradientTransform="scale(27.16368 -27.16368) rotate(-45 -17.3 -22.364)" gradientUnits="userSpaceOnUse"><stop offset="0" stop-color="#fdb727"/><stop offset="1" stop-color="#ffce22"/></linearGradient><linearGradient id="d" x2="1" gradientTransform="scale(25.92643 -25.92643) rotate(-45 -19.365 -25.284)" gradientUnits="userSpaceOnUse" xlink:href="#a"/><linearGradient id="g" x2="1" gradientTransform="scale(27.16368 -27.16368) rotate(-45 -17.3 -22.364)" gradientUnits="userSpaceOnUse" xlink:href="#b"/></defs><path fill="none" d="M0-.003h96v96H0z" paint-order="stroke fill markers"/><g clip-path="url(#c)" transform="matrix(1.33333 0 0 -1.33333 -364.198 765.869)"><path fill="url(#d)" d="M312.685 556.184c0-7.16 5.804-12.963 12.964-12.963 7.158 0 12.963 5.803 12.963 12.963 0 7.159-5.805 12.963-12.963 12.963-7.16 0-12.964-5.804-12.964-12.963"/></g><g fill="#fff" clip-path="url(#e)" transform="matrix(1.33333 0 0 -1.33333 -1772.028 979.657)"><path d="M1348.684 682.253l-6.499-11.256a2 2 0 0 1 .732-2.732 1.998 1.998 0 0 1 2.732.732l6.499 11.256c.552.957.224 2.18-.732 2.733a2 2 0 0 1-2.732-.733"/></g><g clip-path="url(#f)" transform="matrix(1.33333 0 0 -1.33333 -350.877 762.903)"><path fill="url(#g)" d="M299.226 529.637l-5.267-9.121c-.825-1.429-.154-2.499 1.492-2.378l4.302.316c1.645.121 2.347-.966 1.56-2.416l-4.786-8.806c-.787-1.45-.389-1.779.885-.73l17.302 14.229c1.274 1.048.968 1.837-.679 1.752l-6.611-.338c-1.648-.085-2.321 1.015-1.497 2.444l2.91 5.04c.825 1.429.15 2.599-1.5 2.6l-3.611.004c-1.651.002-3.676-1.166-4.5-2.596"/></g><path fill="#647179" d="M65.92 64.171c7.853 0 14.22-6.365 14.22-14.218 0-7.854-6.367-14.22-14.22-14.22-.049 0-.095.008-.145.009-1.265-11.339-10.877-20.156-22.553-20.156-9.22 0-17.152 5.501-20.704 13.397-.113-.001-.224-.006-.337-.006-9.719 0-17.598 7.878-17.598 17.597 0 9.719 7.879 17.597 17.598 17.597"/><g fill="#d2e9f8" clip-path="url(#h)" transform="matrix(1.33333 0 0 -1.33333 -1171.947 368.585)"><path d="M922.177 244.882c-.053.001-.105.003-.159.003a8.287 8.287 0 0 1 0-16.574h20.6a6.696 6.696 0 0 1 0 13.392c-.023 0-.045-.003-.069-.003-.596 5.34-5.122 9.493-10.622 9.493-4.341 0-8.077-2.591-9.75-6.311"/></g><g fill="#fff" clip-path="url(#i)" transform="matrix(1.33333 0 0 -1.33333 -1158.735 371.442)"><path d="M895.908 219.964l-2.887-5a2 2 0 0 1 .732-2.732 1.999 1.999 0 0 1 2.732.732l2.888 5a2 2 0 0 1-.733 2.732 1.996 1.996 0 0 1-2.732-.732"/></g><g fill="#fff" clip-path="url(#j)" transform="matrix(1.33333 0 0 -1.33333 -1787.028 979.657)"><path d="M1348.684 682.253l-6.499-11.256a2 2 0 0 1 .732-2.732 1.998 1.998 0 0 1 2.732.732l6.499 11.256c.552.957.224 2.18-.732 2.733a2 2 0 0 1-2.732-.733"/></g><g fill="#fff" clip-path="url(#k)" transform="matrix(1.33333 0 0 -1.33333 -1723.028 979.657)"><path d="M1348.684 682.253l-6.499-11.256a2 2 0 0 1 .732-2.732 1.998 1.998 0 0 1 2.732.732l6.499 11.256c.552.957.224 2.18-.732 2.733a2 2 0 0 1-2.732-.733"/></g></svg>