<svg xmlns="http://www.w3.org/2000/svg" xmlns:xlink="http://www.w3.org/1999/xlink" width="96" height="96"><defs><linearGradient id="a" x2="1" gradientTransform="scale(25.92643 -25.92643) rotate(-45 -3.576 -43.482)" gradientUnits="userSpaceOnUse"><stop offset="0" stop-color="#fdb727"/><stop offset="1" stop-color="#ffce22"/></linearGradient><linearGradient id="b" x2="1" gradientTransform="matrix(9.66123 0 0 -9.66123 437.972 364.871)" gradientUnits="userSpaceOnUse"><stop offset="0" stop-color="#d0e8f8"/><stop offset="1" stop-color="#e2eef9"/></linearGradient><linearGradient id="c" x2="1" gradientTransform="matrix(9.66123 0 0 -9.66123 465.884 364.871)" gradientUnits="userSpaceOnUse"><stop offset="0" stop-color="#d0e8f8"/><stop offset="1" stop-color="#e2eef9"/></linearGradient><linearGradient id="d" x2="1" gradientTransform="matrix(9.66123 0 0 -9.66123 452.41 357.883)" gradientUnits="userSpaceOnUse"><stop offset="0" stop-color="#d0e8f8"/><stop offset="1" stop-color="#e2eef9"/></linearGradient><linearGradient id="f" x2="1" gradientTransform="scale(25.92643 -25.92643) rotate(-45 -3.576 -43.482)" gradientUnits="userSpaceOnUse" xlink:href="#a"/><linearGradient id="i" x2="1" gradientTransform="matrix(9.66123 0 0 -9.66123 437.972 364.871)" gradientUnits="userSpaceOnUse" xlink:href="#b"/><linearGradient id="k" x2="1" gradientTransform="matrix(9.66123 0 0 -9.66123 465.884 364.871)" gradientUnits="userSpaceOnUse" xlink:href="#c"/><linearGradient id="m" x2="1" gradientTransform="matrix(9.66123 0 0 -9.66123 452.41 357.883)" gradientUnits="userSpaceOnUse" xlink:href="#d"/><linearGradient id="o" x2="1" gradientTransform="matrix(9.66123 0 0 -9.66123 452.41 357.883)" gradientUnits="userSpaceOnUse" xlink:href="#d"/><linearGradient id="q" x2="1" gradientTransform="matrix(9.66123 0 0 -9.66123 452.41 357.883)" gradientUnits="userSpaceOnUse" xlink:href="#d"/><clipPath id="e"><path d="M766.19 404.905c0-7.16 5.803-12.963 12.962-12.963 7.16 0 12.964 5.803 12.964 12.963 0 7.159-5.804 12.963-12.964 12.963-7.159 0-12.962-5.804-12.962-12.963"/></clipPath><clipPath id="g"><path d="M0 943.388h1828.656V0H0z"/></clipPath><clipPath id="h"><path d="M437.971 364.871a4.83 4.83 0 1 1 9.662 0 4.83 4.83 0 1 1-9.662 0"/></clipPath><clipPath id="j"><path d="M465.884 364.871a4.831 4.831 0 0 1 9.662 0 4.83 4.83 0 0 1-4.831 4.83 4.83 4.83 0 0 1-4.831-4.83"/></clipPath><clipPath id="l"><path d="M452.409 357.884a4.831 4.831 0 0 1 9.662 0 4.83 4.83 0 1 1-9.662 0"/></clipPath><clipPath id="n"><path d="M452.409 357.884a4.831 4.831 0 0 1 9.662 0 4.83 4.83 0 1 1-9.662 0"/></clipPath><clipPath id="p"><path d="M452.409 357.884a4.831 4.831 0 0 1 9.662 0 4.83 4.83 0 1 1-9.662 0"/></clipPath></defs><g clip-path="url(#e)" transform="matrix(1.33333 0 0 -1.33333 -970.237 565.474)"><path fill="url(#f)" d="M766.19 404.905c0-7.16 5.803-12.963 12.962-12.963 7.16 0 12.964 5.803 12.964 12.963 0 7.159-5.804 12.963-12.964 12.963-7.159 0-12.962-5.804-12.962-12.963"/></g><g fill="#647179" clip-path="url(#g)" transform="matrix(1.33333 0 0 -1.33333 -560.176 561.515)"><path d="M473.696 377.985c5.89 0 10.664 4.774 10.664 10.664s-4.774 10.664-10.664 10.664c-.037 0-.072-.005-.109-.006-.949 8.504-8.158 15.117-16.915 15.117-6.915 0-12.864-4.126-15.528-10.048-.085 0-.168.006-.253.006-7.289 0-13.198-5.91-13.198-13.2 0-7.289 5.91-13.198 13.198-13.198"/></g><g clip-path="url(#h)" transform="matrix(1.33333 0 0 -1.33333 -554.32 567.737)"><path fill="url(#i)" d="M437.971 364.871a4.83 4.83 0 1 1 9.662 0 4.83 4.83 0 1 1-9.662 0"/></g><g clip-path="url(#j)" transform="matrix(1.33333 0 0 -1.33333 -578.538 553.737)"><path fill="url(#k)" d="M465.884 364.871a4.831 4.831 0 0 1 9.662 0 4.83 4.83 0 0 1-4.831 4.83 4.83 4.83 0 0 1-4.831-4.83"/></g><g clip-path="url(#l)" transform="matrix(1.33333 0 0 -1.33333 -583.571 544.42)"><path fill="url(#m)" d="M452.409 357.884a4.831 4.831 0 0 1 9.662 0 4.83 4.83 0 1 1-9.662 0"/></g><g clip-path="url(#n)" transform="matrix(1.33333 0 0 -1.33333 -549.571 558.42)"><path fill="url(#o)" d="M452.409 357.884a4.831 4.831 0 0 1 9.662 0 4.83 4.83 0 1 1-9.662 0"/></g><g clip-path="url(#p)" transform="matrix(1.33333 0 0 -1.33333 -538.571 544.42)"><path fill="url(#q)" d="M452.409 357.884a4.831 4.831 0 0 1 9.662 0 4.83 4.83 0 1 1-9.662 0"/></g><path fill="none" d="M0-.003h96v96H0z" paint-order="stroke fill markers"/></svg>