<svg xmlns="http://www.w3.org/2000/svg" xmlns:xlink="http://www.w3.org/1999/xlink" width="96" height="96"><defs><linearGradient id="a" x2="1" gradientTransform="scale(27.16368 -27.16368) rotate(-45 -17.3 -22.364)" gradientUnits="userSpaceOnUse"><stop offset="0" stop-color="#fdb727"/><stop offset="1" stop-color="#ffce22"/></linearGradient><linearGradient id="b" x2="1" gradientTransform="matrix(9.66123 0 0 -9.66123 437.972 364.871)" gradientUnits="userSpaceOnUse"><stop offset="0" stop-color="#d0e8f8"/><stop offset="1" stop-color="#e2eef9"/></linearGradient><linearGradient id="c" x2="1" gradientTransform="matrix(9.66123 0 0 -9.66123 465.884 364.871)" gradientUnits="userSpaceOnUse"><stop offset="0" stop-color="#d0e8f8"/><stop offset="1" stop-color="#e2eef9"/></linearGradient><linearGradient id="d" x2="1" gradientTransform="matrix(9.66123 0 0 -9.66123 452.41 357.883)" gradientUnits="userSpaceOnUse"><stop offset="0" stop-color="#d0e8f8"/><stop offset="1" stop-color="#e2eef9"/></linearGradient><linearGradient id="f" x2="1" gradientTransform="scale(27.16368 -27.16368) rotate(-45 -17.3 -22.364)" gradientUnits="userSpaceOnUse" xlink:href="#a"/><linearGradient id="i" x2="1" gradientTransform="matrix(9.66123 0 0 -9.66123 437.972 364.871)" gradientUnits="userSpaceOnUse" xlink:href="#b"/><linearGradient id="k" x2="1" gradientTransform="matrix(9.66123 0 0 -9.66123 465.884 364.871)" gradientUnits="userSpaceOnUse" xlink:href="#c"/><linearGradient id="m" x2="1" gradientTransform="matrix(9.66123 0 0 -9.66123 452.41 357.883)" gradientUnits="userSpaceOnUse" xlink:href="#d"/><linearGradient id="o" x2="1" gradientTransform="matrix(9.66123 0 0 -9.66123 452.41 357.883)" gradientUnits="userSpaceOnUse" xlink:href="#d"/><linearGradient id="q" x2="1" gradientTransform="matrix(9.66123 0 0 -9.66123 452.41 357.883)" gradientUnits="userSpaceOnUse" xlink:href="#d"/><clipPath id="e"><path d="M299.226 529.637l-5.267-9.121c-.825-1.429-.154-2.499 1.492-2.378l4.302.316c1.645.121 2.347-.966 1.56-2.416l-4.786-8.806c-.787-1.45-.389-1.779.885-.73l17.302 14.229c1.274 1.048.968 1.837-.679 1.752l-6.611-.338c-1.648-.085-2.321 1.015-1.497 2.444l2.91 5.04c.825 1.429.15 2.599-1.5 2.6l-3.611.004c-1.651.002-3.676-1.166-4.5-2.596"/></clipPath><clipPath id="g"><path d="M922.177 244.882h-.159a8.287 8.287 0 0 1 0-16.574h20.6a6.696 6.696 0 0 1 0 13.392h-.069c-.596 5.34-5.122 9.493-10.622 9.493-4.341 0-8.077-2.591-9.75-6.311"/></clipPath><clipPath id="h"><path d="M437.971 364.871a4.83 4.83 0 1 1 9.662 0 4.83 4.83 0 1 1-9.662 0"/></clipPath><clipPath id="j"><path d="M465.884 364.871a4.831 4.831 0 0 1 9.662 0 4.83 4.83 0 0 1-4.831 4.83 4.83 4.83 0 0 1-4.831-4.83"/></clipPath><clipPath id="l"><path d="M452.409 357.884a4.831 4.831 0 0 1 9.662 0 4.83 4.83 0 1 1-9.662 0"/></clipPath><clipPath id="n"><path d="M452.409 357.884a4.831 4.831 0 0 1 9.662 0 4.83 4.83 0 1 1-9.662 0"/></clipPath><clipPath id="p"><path d="M452.409 357.884a4.831 4.831 0 0 1 9.662 0 4.83 4.83 0 1 1-9.662 0"/></clipPath></defs><path fill="none" d="M0-.003h96v96H0z" paint-order="stroke fill markers"/><g clip-path="url(#e)" transform="matrix(1.33333 0 0 -1.33333 -351.06 756.89)"><path fill="url(#f)" d="M299.226 529.637l-5.267-9.121c-.825-1.429-.154-2.499 1.492-2.378l4.302.316c1.645.121 2.347-.966 1.56-2.416l-4.786-8.806c-.787-1.45-.389-1.779.885-.73l17.302 14.229c1.274 1.048.968 1.837-.679 1.752l-6.611-.338c-1.648-.085-2.321 1.015-1.497 2.444l2.91 5.04c.825 1.429.15 2.599-1.5 2.6l-3.611.004c-1.651.002-3.676-1.166-4.5-2.596"/></g><path fill="#647179" d="M65.739 58.158c7.852 0 14.218-6.365 14.218-14.219 0-7.853-6.366-14.218-14.218-14.218-.05 0-.096.006-.146.008C64.328 18.389 54.716 9.573 43.04 9.573c-9.22 0-17.152 5.5-20.704 13.397-.113-.001-.224-.007-.337-.007-9.72 0-17.598 7.879-17.598 17.598 0 9.718 7.879 17.597 17.598 17.597"/><g fill="#d2e9f8" clip-path="url(#g)" transform="matrix(1.33333 0 0 -1.33333 -1172.129 362.572)"><path d="M922.177 244.882c-.053.001-.105.003-.159.003a8.287 8.287 0 0 1 0-16.574h20.6a6.696 6.696 0 0 1 0 13.392c-.023 0-.045-.003-.069-.003-.596 5.34-5.122 9.493-10.622 9.493-4.341 0-8.077-2.591-9.75-6.311"/></g><g clip-path="url(#h)" transform="matrix(1.33333 0 0 -1.33333 -571.585 566.48)"><path fill="url(#i)" d="M437.971 364.871a4.83 4.83 0 1 1 9.662 0 4.83 4.83 0 1 1-9.662 0"/></g><g clip-path="url(#j)" transform="matrix(1.33333 0 0 -1.33333 -595.802 552.48)"><path fill="url(#k)" d="M465.884 364.871a4.831 4.831 0 0 1 9.662 0 4.83 4.83 0 0 1-4.831 4.83 4.83 4.83 0 0 1-4.831-4.83"/></g><g clip-path="url(#l)" transform="matrix(1.33333 0 0 -1.33333 -600.835 543.165)"><path fill="url(#m)" d="M452.409 357.884a4.831 4.831 0 0 1 9.662 0 4.83 4.83 0 1 1-9.662 0"/></g><g clip-path="url(#n)" transform="matrix(1.33333 0 0 -1.33333 -540.835 557.165)"><path fill="url(#o)" d="M452.409 357.884a4.831 4.831 0 0 1 9.662 0 4.83 4.83 0 1 1-9.662 0"/></g><g clip-path="url(#p)" transform="matrix(1.33333 0 0 -1.33333 -529.835 543.165)"><path fill="url(#q)" d="M452.409 357.884a4.831 4.831 0 0 1 9.662 0 4.83 4.83 0 1 1-9.662 0"/></g></svg>