<svg xmlns="http://www.w3.org/2000/svg" width="96" height="96"><defs><clipPath id="a"><path d="M0 943.388h1828.656V0H0z"/></clipPath><clipPath id="b"><path d="M315.904 707.602c-.052 0-.104.003-.157.003a8.288 8.288 0 0 1 0-16.575h20.599a6.697 6.697 0 0 1 0 13.393c-.023 0-.046-.004-.068-.004-.596 5.34-5.123 9.492-10.622 9.492-4.342 0-8.078-2.591-9.752-6.309"/></clipPath><clipPath id="d"><path d="M286.924 682.682l-2.888-4.999a2 2 0 0 1 .733-2.732 1.999 1.999 0 0 1 2.732.732l2.888 5a2.001 2.001 0 0 1-.733 2.732 1.997 1.997 0 0 1-2.732-.733"/></clipPath><clipPath id="f"><path d="M303.035 682.682l-2.887-4.999a2 2 0 0 1 .733-2.732 2 2 0 0 1 2.732.732l2.887 5a2.001 2.001 0 0 1-.732 2.732 2 2 0 0 1-2.733-.733"/></clipPath><clipPath id="h"><path d="M319.147 682.682l-2.887-4.999a2 2 0 0 1 .733-2.732 2 2 0 0 1 2.732.732l2.887 5a2 2 0 0 1-1.732 3.001 2 2 0 0 1-1.733-1.002"/></clipPath><clipPath id="j"><path d="M291.923 675.503l-2.886-5a2 2 0 0 1 .732-2.732 2.002 2.002 0 0 1 2.733.732l2.886 5a2 2 0 0 1-.733 2.732 1.999 1.999 0 0 1-2.732-.732"/></clipPath><clipPath id="l"><path d="M308.536 675.503l-2.887-5a2 2 0 0 1 .733-2.732 2 2 0 0 1 2.732.732l2.886 5a2 2 0 0 1-.731 2.732 1.997 1.997 0 0 1-2.733-.732"/></clipPath><clipPath id="n"><path d="M325.147 675.503l-2.887-5a2.001 2.001 0 0 1 .733-2.732 2 2 0 0 1 2.732.732l2.887 5a2 2 0 0 1-1.732 3.001 1.999 1.999 0 0 1-1.733-1.001"/></clipPath><linearGradient id="c" x2="1" gradientTransform="scale(28.74394 -28.74394) rotate(-45 -23.435 -25.199)" gradientUnits="userSpaceOnUse"><stop offset="0" stop-color="#d0e8f8"/><stop offset="1" stop-color="#e2eef9"/></linearGradient><linearGradient id="e" x2="1" gradientTransform="matrix(6.88767 0 0 -6.88767 283.769 679.183)" gradientUnits="userSpaceOnUse"><stop offset="0" stop-color="#00aeef"/><stop offset="1" stop-color="#00bdf2"/></linearGradient><linearGradient id="g" x2="1" gradientTransform="matrix(6.88767 0 0 -6.88767 299.88 679.183)" gradientUnits="userSpaceOnUse"><stop offset="0" stop-color="#00aeef"/><stop offset="1" stop-color="#00bdf2"/></linearGradient><linearGradient id="i" x2="1" gradientTransform="matrix(6.88767 0 0 -6.88767 315.993 679.183)" gradientUnits="userSpaceOnUse"><stop offset="0" stop-color="#00aeef"/><stop offset="1" stop-color="#00bdf2"/></linearGradient><linearGradient id="k" x2="1" gradientTransform="matrix(6.88767 0 0 -6.88767 288.769 672.003)" gradientUnits="userSpaceOnUse"><stop offset="0" stop-color="#00aeef"/><stop offset="1" stop-color="#00bdf2"/></linearGradient><linearGradient id="m" x2="1" gradientTransform="matrix(6.88767 0 0 -6.88767 305.381 672.003)" gradientUnits="userSpaceOnUse"><stop offset="0" stop-color="#00aeef"/><stop offset="1" stop-color="#00bdf2"/></linearGradient><linearGradient id="o" x2="1" gradientTransform="matrix(6.88767 0 0 -6.88767 321.993 672.003)" gradientUnits="userSpaceOnUse"><stop offset="0" stop-color="#00aeef"/><stop offset="1" stop-color="#00bdf2"/></linearGradient></defs><g clip-path="url(#a)" transform="matrix(1.43463 0 0 -1.43463 -396.137 1048.63)"><path fill="#fff" d="M322.129 691.03c5.889 0 10.664 4.774 10.664 10.664 0 5.889-4.775 10.664-10.664 10.664-.037 0-.072-.006-.11-.006-.948 8.504-8.157 15.116-16.914 15.116-6.915 0-12.864-4.125-15.528-10.048-.085.002-.168.006-.253.006-7.29 0-13.198-5.91-13.198-13.198 0-7.29 5.909-13.198 13.198-13.198"/></g><g clip-path="url(#b)" transform="matrix(1.43463 0 0 -1.43463 -396.137 1048.63)"><path fill="url(#c)" d="M315.904 707.602c-.052 0-.104.003-.157.003a8.288 8.288 0 0 1 0-16.575h20.599a6.697 6.697 0 0 1 0 13.393c-.023 0-.046-.004-.068-.004-.596 5.34-5.123 9.492-10.622 9.492-4.342 0-8.078-2.591-9.752-6.309"/></g><g clip-path="url(#d)" transform="matrix(1.43463 0 0 -1.43463 -396.137 1048.63)"><path fill="url(#e)" d="M286.924 682.682l-2.888-4.999a2 2 0 0 1 .733-2.732 1.999 1.999 0 0 1 2.732.732l2.888 5a2.001 2.001 0 0 1-.733 2.732 1.997 1.997 0 0 1-2.732-.733"/></g><g clip-path="url(#f)" transform="matrix(1.43463 0 0 -1.43463 -396.137 1048.63)"><path fill="url(#g)" d="M303.035 682.682l-2.887-4.999a2 2 0 0 1 .733-2.732 2 2 0 0 1 2.732.732l2.887 5a2.001 2.001 0 0 1-.732 2.732 2 2 0 0 1-2.733-.733"/></g><g clip-path="url(#h)" transform="matrix(1.43463 0 0 -1.43463 -396.137 1048.63)"><path fill="url(#i)" d="M319.147 682.682l-2.887-4.999a2 2 0 0 1 .733-2.732 2 2 0 0 1 2.732.732l2.887 5a2 2 0 0 1-1.732 3.001 2 2 0 0 1-1.733-1.002"/></g><g clip-path="url(#j)" transform="matrix(1.43463 0 0 -1.43463 -396.137 1048.63)"><path fill="url(#k)" d="M291.923 675.503l-2.886-5a2 2 0 0 1 .732-2.732 2.002 2.002 0 0 1 2.733.732l2.886 5a2 2 0 0 1-.733 2.732 1.999 1.999 0 0 1-2.732-.732"/></g><g clip-path="url(#l)" transform="matrix(1.43463 0 0 -1.43463 -396.137 1048.63)"><path fill="url(#m)" d="M308.536 675.503l-2.887-5a2 2 0 0 1 .733-2.732 2 2 0 0 1 2.732.732l2.886 5a2 2 0 0 1-.731 2.732 1.997 1.997 0 0 1-2.733-.732"/></g><g clip-path="url(#n)" transform="matrix(1.43463 0 0 -1.43463 -396.137 1048.63)"><path fill="url(#o)" d="M325.147 675.503l-2.887-5a2.001 2.001 0 0 1 .733-2.732 2 2 0 0 1 2.732.732l2.887 5a2 2 0 0 1-1.732 3.001 1.999 1.999 0 0 1-1.733-1.001"/></g><path fill="none" d="M-.002-.006h96v96h-96z" paint-order="stroke fill markers"/></svg>