<svg xmlns="http://www.w3.org/2000/svg" xmlns:xlink="http://www.w3.org/1999/xlink" width="96" height="96"><defs><linearGradient id="a" x2="1" gradientTransform="scale(25.92643 -25.92643) rotate(-45 -19.365 -25.284)" gradientUnits="userSpaceOnUse"><stop offset="0" stop-color="#fdb727"/><stop offset="1" stop-color="#ffce22"/></linearGradient><linearGradient id="b" x2="1" gradientTransform="scale(27.16368 -27.16368) rotate(-45 -17.3 -22.364)" gradientUnits="userSpaceOnUse"><stop offset="0" stop-color="#fdb727"/><stop offset="1" stop-color="#ffce22"/></linearGradient><linearGradient id="c" x2="1" gradientTransform="scale(28.74394 -28.74394) rotate(-45 -16.61 -22.372)" gradientUnits="userSpaceOnUse"><stop offset="0" stop-color="#d0e8f8"/><stop offset="1" stop-color="#e2eef9"/></linearGradient><linearGradient id="e" x2="1" gradientTransform="scale(25.92643 -25.92643) rotate(-45 -19.365 -25.284)" gradientUnits="userSpaceOnUse" xlink:href="#a"/><linearGradient id="g" x2="1" gradientTransform="scale(27.16368 -27.16368) rotate(-45 -17.3 -22.364)" gradientUnits="userSpaceOnUse" xlink:href="#b"/><linearGradient id="j" x2="1" gradientTransform="scale(28.74394 -28.74394) rotate(-45 -16.61 -22.372)" gradientUnits="userSpaceOnUse" xlink:href="#c"/><clipPath id="d"><path d="M312.685 556.184c0-7.16 5.804-12.963 12.964-12.963 7.158 0 12.963 5.803 12.963 12.963 0 7.159-5.805 12.963-12.963 12.963-7.16 0-12.964-5.804-12.964-12.963"/></clipPath><clipPath id="f"><path d="M299.226 529.637l-5.267-9.121c-.825-1.429-.154-2.499 1.492-2.378l4.302.316c1.645.121 2.347-.966 1.56-2.416l-4.786-8.806c-.787-1.45-.389-1.779.885-.73l17.302 14.229c1.274 1.048.968 1.837-.679 1.752l-6.611-.338c-1.648-.085-2.321 1.015-1.497 2.444l2.91 5.04c.825 1.429.15 2.599-1.5 2.6l-3.611.004c-1.651.002-3.676-1.166-4.5-2.596"/></clipPath><clipPath id="h"><path d="M0 943.388h1828.656V0H0z"/></clipPath><clipPath id="i"><path d="M315.904 545.066c-.052.001-.104.004-.157.004a8.288 8.288 0 0 1 0-16.576h20.599a6.696 6.696 0 0 1 0 13.392l-.068-.002c-.596 5.339-5.123 9.492-10.622 9.492-4.342 0-8.078-2.591-9.752-6.31"/></clipPath><clipPath id="k"><path d="M1380.107 682.253l-6.001-10.391a2 2 0 0 1 1.73-3.001c.691 0 1.365.359 1.735 1l5.999 10.392a2 2 0 0 1-.732 2.733 1.997 1.997 0 0 1-2.731-.733"/></clipPath><clipPath id="l"><path d="M1380.107 682.253l-6.001-10.391a2 2 0 0 1 1.73-3.001c.691 0 1.365.359 1.735 1l5.999 10.392a2 2 0 0 1-.732 2.733 1.997 1.997 0 0 1-2.731-.733"/></clipPath></defs><g clip-path="url(#d)" transform="matrix(1.33333 0 0 -1.33333 -364.778 763.845)"><path fill="url(#e)" d="M312.685 556.184c0-7.16 5.804-12.963 12.964-12.963 7.158 0 12.963 5.803 12.963 12.963 0 7.159-5.805 12.963-12.963 12.963-7.16 0-12.964-5.804-12.964-12.963"/></g><g clip-path="url(#f)" transform="matrix(1.33333 0 0 -1.33333 -372.778 763.845)"><path fill="url(#g)" d="M299.226 529.637l-5.267-9.121c-.825-1.429-.154-2.499 1.492-2.378l4.302.316c1.645.121 2.347-.966 1.56-2.416l-4.786-8.806c-.787-1.45-.389-1.779.885-.73l17.302 14.229c1.274 1.048.968 1.837-.679 1.752l-6.611-.338c-1.648-.085-2.321 1.015-1.497 2.444l2.91 5.04c.825 1.429.15 2.599-1.5 2.6l-3.611.004c-1.651.002-3.676-1.166-4.5-2.596"/></g><g clip-path="url(#h)" transform="matrix(1.33333 0 0 -1.33333 -364.778 763.845)"><path fill="#fff" d="M322.129 528.494c5.889 0 10.664 4.774 10.664 10.664s-4.775 10.664-10.664 10.664c-.037 0-.072-.005-.11-.006-.948 8.504-8.157 15.117-16.914 15.117-6.915 0-12.864-4.126-15.528-10.048-.085.001-.168.006-.253.006-7.29 0-13.198-5.909-13.198-13.198 0-7.29 5.909-13.199 13.198-13.199"/></g><g clip-path="url(#i)" transform="matrix(1.33333 0 0 -1.33333 -364.778 763.845)"><path fill="url(#j)" d="M315.904 545.066c-.052.001-.104.004-.157.004a8.288 8.288 0 0 1 0-16.576h20.599a6.696 6.696 0 0 1 0 13.392l-.068-.002c-.596 5.339-5.123 9.492-10.622 9.492-4.342 0-8.078-2.591-9.752-6.31"/></g><path fill="none" d="M0-.003h96v96H0z" paint-order="stroke fill markers"/><g fill="#fff" clip-path="url(#k)" transform="matrix(1.33333 0 0 -1.33333 -1766.45 973.41)"><path d="M1380.107 682.253l-6.001-10.391a2 2 0 0 1 1.73-3.001c.691 0 1.365.359 1.735 1l5.999 10.392a2 2 0 0 1-.732 2.733 1.997 1.997 0 0 1-2.731-.733"/></g><g fill="#fff" clip-path="url(#l)" transform="matrix(1.33333 0 0 -1.33333 -1782.45 973.41)"><path d="M1380.107 682.253l-6.001-10.391a2 2 0 0 1 1.73-3.001c.691 0 1.365.359 1.735 1l5.999 10.392a2 2 0 0 1-.732 2.733 1.997 1.997 0 0 1-2.731-.733"/></g></svg>