<svg xmlns="http://www.w3.org/2000/svg" xmlns:xlink="http://www.w3.org/1999/xlink" width="96" height="96"><defs><linearGradient id="a" x2="1" gradientTransform="scale(25.92643 -25.92643) rotate(-45 -3.576 -43.482)" gradientUnits="userSpaceOnUse"><stop offset="0" stop-color="#fdb727"/><stop offset="1" stop-color="#ffce22"/></linearGradient><linearGradient id="b" x2="1" gradientTransform="scale(28.74394 -28.74394) rotate(-45 -2.364 -38.842)" gradientUnits="userSpaceOnUse"><stop offset="0" stop-color="#d0e8f8"/><stop offset="1" stop-color="#e2eef9"/></linearGradient><linearGradient id="d" x2="1" gradientTransform="scale(25.92643 -25.92643) rotate(-45 -3.576 -43.482)" gradientUnits="userSpaceOnUse" xlink:href="#a"/><linearGradient id="g" x2="1" gradientTransform="scale(28.74394 -28.74394) rotate(-45 -2.364 -38.842)" gradientUnits="userSpaceOnUse" xlink:href="#b"/><clipPath id="c"><path d="M766.19 404.905c0-7.16 5.803-12.963 12.962-12.963 7.16 0 12.964 5.803 12.964 12.963 0 7.159-5.804 12.963-12.964 12.963-7.159 0-12.962-5.804-12.962-12.963"/></clipPath><clipPath id="e"><path d="M0 943.388h1828.656V0H0z"/></clipPath><clipPath id="f"><path d="M770.609 394.18c-.052.001-.105.004-.159.004a8.288 8.288 0 0 1 0-16.576h20.6a6.696 6.696 0 1 1 0 13.393c-.023 0-.045-.003-.069-.004-.596 5.34-5.122 9.493-10.621 9.493-4.343 0-8.078-2.592-9.751-6.31"/></clipPath></defs><g clip-path="url(#c)" transform="matrix(1.33333 0 0 -1.33333 -971.05 578.317)"><path fill="url(#d)" d="M766.19 404.905c0-7.16 5.803-12.963 12.962-12.963 7.16 0 12.964 5.803 12.964 12.963 0 7.159-5.804 12.963-12.964 12.963-7.159 0-12.962-5.804-12.962-12.963"/></g><g clip-path="url(#e)" transform="matrix(1.33333 0 0 -1.33333 -971.05 578.317)"><path fill="#fff" d="M776.833 377.608c5.889 0 10.664 4.774 10.664 10.664s-4.775 10.663-10.664 10.663c-.037 0-.073-.005-.11-.005-.948 8.504-8.157 15.116-16.914 15.116-6.916 0-12.864-4.125-15.53-10.048-.083.002-.166.006-.251.006-7.29 0-13.198-5.909-13.198-13.198 0-7.289 5.909-13.198 13.198-13.198"/></g><g clip-path="url(#f)" transform="matrix(1.33333 0 0 -1.33333 -971.05 578.317)"><path fill="url(#g)" d="M770.609 394.18c-.052.001-.105.004-.159.004a8.288 8.288 0 0 1 0-16.576h20.6a6.696 6.696 0 1 1 0 13.393c-.023 0-.045-.003-.069-.004-.596 5.34-5.122 9.493-10.621 9.493-4.343 0-8.078-2.592-9.751-6.31"/></g><path fill="none" d="M0-.003h96v96H0z" paint-order="stroke fill markers"/></svg>