<svg xmlns="http://www.w3.org/2000/svg" xmlns:xlink="http://www.w3.org/1999/xlink" width="96" height="96"><defs><linearGradient id="a" x2="1" gradientTransform="scale(27.16368 -27.16368) rotate(-45 -17.3 -22.364)" gradientUnits="userSpaceOnUse"><stop offset="0" stop-color="#fdb727"/><stop offset="1" stop-color="#ffce22"/></linearGradient><linearGradient id="b" x2="1" gradientTransform="scale(25.92643 -25.92643) rotate(-45 6.2 -47.7)" gradientUnits="userSpaceOnUse"><stop offset="0" stop-color="#fdb727"/><stop offset="1" stop-color="#ffce22"/></linearGradient><linearGradient id="c" x2="1" gradientTransform="scale(28.74394 -28.74394) rotate(-45 6.543 -42.61)" gradientUnits="userSpaceOnUse"><stop offset="0" stop-color="#d0e8f8"/><stop offset="1" stop-color="#e2eef9"/></linearGradient><linearGradient id="d" x2="1" gradientTransform="matrix(6.88767 0 0 -6.88767 892.753 216.465)" gradientUnits="userSpaceOnUse"><stop offset="0" stop-color="#00aeef"/><stop offset="1" stop-color="#00bdf2"/></linearGradient><linearGradient id="e" x2="1" gradientTransform="matrix(6.88767 0 0 -6.88767 906.365 216.465)" gradientUnits="userSpaceOnUse"><stop offset="0" stop-color="#00aeef"/><stop offset="1" stop-color="#00bdf2"/></linearGradient><linearGradient id="f" x2="1" gradientTransform="matrix(6.88767 0 0 -6.88767 920.977 216.465)" gradientUnits="userSpaceOnUse"><stop offset="0" stop-color="#00aeef"/><stop offset="1" stop-color="#00bdf2"/></linearGradient><linearGradient id="h" x2="1" gradientTransform="scale(27.16368 -27.16368) rotate(-45 -17.3 -22.364)" gradientUnits="userSpaceOnUse" xlink:href="#a"/><linearGradient id="j" x2="1" gradientTransform="scale(25.92643 -25.92643) rotate(-45 6.2 -47.7)" gradientUnits="userSpaceOnUse" xlink:href="#b"/><linearGradient id="m" x2="1" gradientTransform="scale(28.74394 -28.74394) rotate(-45 6.543 -42.61)" gradientUnits="userSpaceOnUse" xlink:href="#c"/><linearGradient id="o" x2="1" gradientTransform="matrix(6.88767 0 0 -6.88767 892.753 216.465)" gradientUnits="userSpaceOnUse" xlink:href="#d"/><linearGradient id="q" x2="1" gradientTransform="matrix(6.88767 0 0 -6.88767 906.365 216.465)" gradientUnits="userSpaceOnUse" xlink:href="#e"/><linearGradient id="s" x2="1" gradientTransform="matrix(6.88767 0 0 -6.88767 920.977 216.465)" gradientUnits="userSpaceOnUse" xlink:href="#f"/><clipPath id="g"><path d="M299.226 529.637l-5.267-9.121c-.825-1.429-.154-2.499 1.492-2.378l4.302.316c1.645.121 2.347-.966 1.56-2.416l-4.786-8.806c-.787-1.45-.389-1.779.885-.73l17.302 14.229c1.274 1.048.968 1.837-.679 1.752l-6.611-.338c-1.648-.085-2.321 1.015-1.497 2.444l2.91 5.04c.825 1.429.15 2.599-1.5 2.6l-3.611.004c-1.651.002-3.676-1.166-4.5-2.596"/></clipPath><clipPath id="i"><path d="M917.757 257.718c0-7.159 5.805-12.964 12.964-12.964 7.159 0 12.963 5.805 12.963 12.964 0 7.159-5.804 12.962-12.963 12.962-7.159 0-12.964-5.803-12.964-12.962"/></clipPath><clipPath id="k"><path d="M0 943.388h1828.656V0H0z"/></clipPath><clipPath id="l"><path d="M922.177 244.882c-.053.001-.105.003-.159.003a8.287 8.287 0 0 1 0-16.574h20.6a6.696 6.696 0 0 1 0 13.392c-.023 0-.045-.003-.069-.003-.596 5.34-5.122 9.493-10.622 9.493-4.341 0-8.077-2.591-9.75-6.311"/></clipPath><clipPath id="n"><path d="M895.908 219.964l-2.887-5a2 2 0 0 1 .732-2.732 1.999 1.999 0 0 1 2.732.732l2.888 5a2 2 0 0 1-.733 2.732 1.996 1.996 0 0 1-2.732-.732"/></clipPath><clipPath id="p"><path d="M909.52 219.964l-2.887-5a2 2 0 0 1 .733-2.732 2.001 2.001 0 0 1 2.732.732l2.887 5a2 2 0 0 1-1.732 3.001 1.999 1.999 0 0 1-1.733-1.001"/></clipPath><clipPath id="r"><path d="M924.132 219.964l-2.887-5a2 2 0 0 1 .732-2.732 2 2 0 0 1 2.732.732l2.888 5a2 2 0 0 1-1.733 3.001 1.996 1.996 0 0 1-1.732-1.001"/></clipPath></defs><g clip-path="url(#g)" transform="matrix(1.33333 0 0 -1.33333 -352.071 764.08)"><path fill="url(#h)" d="M299.226 529.637l-5.267-9.121c-.825-1.429-.154-2.499 1.492-2.378l4.302.316c1.645.121 2.347-.966 1.56-2.416l-4.786-8.806c-.787-1.45-.389-1.779.885-.73l17.302 14.229c1.274 1.048.968 1.837-.679 1.752l-6.611-.338c-1.648-.085-2.321 1.015-1.497 2.444l2.91 5.04c.825 1.429.15 2.599-1.5 2.6l-3.611.004c-1.651.002-3.676-1.166-4.5-2.596"/></g><g clip-path="url(#i)" transform="matrix(1.33333 0 0 -1.33333 -1173.14 369.763)"><path fill="url(#j)" d="M917.757 257.718c0-7.159 5.805-12.964 12.964-12.964 7.159 0 12.963 5.805 12.963 12.964 0 7.159-5.804 12.962-12.963 12.962-7.159 0-12.964-5.803-12.964-12.962"/></g><g clip-path="url(#k)" transform="matrix(1.33333 0 0 -1.33333 -1173.14 369.763)"><path fill="#fff" d="M928.4 228.31c5.89 0 10.664 4.775 10.664 10.665 0 5.89-4.775 10.664-10.664 10.664-.037 0-.072-.005-.109-.006-.949 8.504-8.158 15.117-16.915 15.117-6.915 0-12.864-4.126-15.528-10.048-.085 0-.168.005-.253.005-7.289 0-13.198-5.91-13.198-13.198 0-7.29 5.91-13.198 13.198-13.198"/></g><g clip-path="url(#l)" transform="matrix(1.33333 0 0 -1.33333 -1173.14 369.763)"><path fill="url(#m)" d="M922.177 244.882c-.053.001-.105.003-.159.003a8.287 8.287 0 0 1 0-16.574h20.6a6.696 6.696 0 0 1 0 13.392c-.023 0-.045-.003-.069-.003-.596 5.34-5.122 9.493-10.622 9.493-4.341 0-8.077-2.591-9.75-6.311"/></g><g clip-path="url(#n)" transform="matrix(1.33333 0 0 -1.33333 -1173.14 369.763)"><path fill="url(#o)" d="M895.908 219.964l-2.887-5a2 2 0 0 1 .732-2.732 1.999 1.999 0 0 1 2.732.732l2.888 5a2 2 0 0 1-.733 2.732 1.996 1.996 0 0 1-2.732-.732"/></g><g clip-path="url(#p)" transform="matrix(1.33333 0 0 -1.33333 -1177.14 369.763)"><path fill="url(#q)" d="M909.52 219.964l-2.887-5a2 2 0 0 1 .733-2.732 2.001 2.001 0 0 1 2.732.732l2.887 5a2 2 0 0 1-1.732 3.001 1.999 1.999 0 0 1-1.733-1.001"/></g><g clip-path="url(#r)" transform="matrix(1.33333 0 0 -1.33333 -1165.14 369.763)"><path fill="url(#s)" d="M924.132 219.964l-2.887-5a2 2 0 0 1 .732-2.732 2 2 0 0 1 2.732.732l2.888 5a2 2 0 0 1-1.733 3.001 1.996 1.996 0 0 1-1.732-1.001"/></g><path fill="none" d="M0-.003h96v96H0z" paint-order="stroke fill markers"/></svg>