<svg xmlns="http://www.w3.org/2000/svg" width="96" height="96"><defs><clipPath id="a"><path d="M615.362 691.713l-5.267-9.122c-.826-1.43-.154-2.5 1.492-2.378l4.302.316c1.645.121 2.347-.966 1.56-2.416l-4.786-8.806c-.787-1.45-.389-1.779.885-.73l17.302 14.229c1.274 1.047.969 1.837-.68 1.752l-6.61-.338c-1.648-.085-2.322 1.016-1.496 2.444l2.909 5.04c.825 1.429.15 2.599-1.5 2.601l-3.611.004c-1.65.001-3.675-1.168-4.5-2.596"/></clipPath><clipPath id="c"><path d="M0 943.388h1828.656V0H0z"/></clipPath><clipPath id="d"><path d="M619.041 707.141l-.159.003a8.288 8.288 0 0 1 0-16.575h20.6a6.696 6.696 0 1 1 0 13.393c-.023 0-.046-.004-.068-.004-.596 5.34-5.124 9.493-10.622 9.493-4.342 0-8.077-2.591-9.751-6.31"/></clipPath><clipPath id="f"><path d="M589.844 682.311l-6.499-11.257a2 2 0 0 1 .732-2.732 2 2 0 0 1 2.732.733l6.499 11.256a2 2 0 0 1-.732 2.732 2 2 0 0 1-2.732-.732"/></clipPath><clipPath id="h"><path d="M600.478 682.311l-6.499-11.257a2 2 0 0 1 .732-2.732 1.998 1.998 0 0 1 2.732.733l6.499 11.256a2 2 0 0 1-.732 2.732 2 2 0 0 1-2.732-.732"/></clipPath><linearGradient id="b" x2="1" gradientTransform="scale(27.16368 -27.16368) rotate(-45 -18.683 -39.395)" gradientUnits="userSpaceOnUse"><stop offset="0" stop-color="#fdb727"/><stop offset="1" stop-color="#ffce22"/></linearGradient><linearGradient id="e" x2="1" gradientTransform="scale(28.74394 -28.74394) rotate(-45 -18.143 -37.921)" gradientUnits="userSpaceOnUse"><stop offset="0" stop-color="#d0e8f8"/><stop offset="1" stop-color="#e2eef9"/></linearGradient><linearGradient id="g" x2="1" gradientTransform="matrix(10.49946 0 0 -10.49946 583.077 675.683)" gradientUnits="userSpaceOnUse"><stop offset="0" stop-color="#00aeef"/><stop offset="1" stop-color="#00bdf2"/></linearGradient><linearGradient id="i" x2="1" gradientTransform="matrix(10.49946 0 0 -10.49946 593.71 675.683)" gradientUnits="userSpaceOnUse"><stop offset="0" stop-color="#00aeef"/><stop offset="1" stop-color="#00bdf2"/></linearGradient></defs><g clip-path="url(#a)" transform="matrix(1.33333 0 0 -1.33333 -768.96 977.98)"><path fill="url(#b)" d="M615.362 691.713l-5.267-9.122c-.826-1.43-.154-2.5 1.492-2.378l4.302.316c1.645.121 2.347-.966 1.56-2.416l-4.786-8.806c-.787-1.45-.389-1.779.885-.73l17.302 14.229c1.274 1.047.969 1.837-.68 1.752l-6.61-.338c-1.648-.085-2.322 1.016-1.496 2.444l2.909 5.04c.825 1.429.15 2.599-1.5 2.601l-3.611.004c-1.65.001-3.675-1.168-4.5-2.596"/></g><g clip-path="url(#c)" transform="matrix(1.33333 0 0 -1.33333 -768.96 977.98)"><path fill="#fff" d="M625.264 690.57c5.89 0 10.664 4.773 10.664 10.663 0 5.89-4.774 10.664-10.664 10.664-.037 0-.072-.006-.109-.006-.949 8.504-8.158 15.116-16.915 15.116-6.915 0-12.864-4.125-15.528-10.048-.084.002-.168.006-.252.006-7.29 0-13.199-5.909-13.199-13.198 0-7.289 5.91-13.198 13.2-13.198"/></g><g clip-path="url(#d)" transform="matrix(1.33333 0 0 -1.33333 -768.96 977.98)"><path fill="url(#e)" d="M619.041 707.141l-.159.003a8.288 8.288 0 0 1 0-16.575h20.6a6.696 6.696 0 1 1 0 13.393c-.023 0-.046-.004-.068-.004-.596 5.34-5.124 9.493-10.622 9.493-4.342 0-8.077-2.591-9.751-6.31"/></g><g clip-path="url(#f)" transform="matrix(1.33333 0 0 -1.33333 -768.96 977.98)"><path fill="url(#g)" d="M589.844 682.311l-6.499-11.257a2 2 0 0 1 .732-2.732 2 2 0 0 1 2.732.733l6.499 11.256a2 2 0 0 1-.732 2.732 2 2 0 0 1-2.732-.732"/></g><g clip-path="url(#h)" transform="matrix(1.33333 0 0 -1.33333 -768.96 977.98)"><path fill="url(#i)" d="M600.478 682.311l-6.499-11.257a2 2 0 0 1 .732-2.732 1.998 1.998 0 0 1 2.732.733l6.499 11.256a2 2 0 0 1-.732 2.732 2 2 0 0 1-2.732-.732"/></g><path fill="none" d="M-.004-.003h96v96h-96z" paint-order="stroke fill markers"/></svg>