<svg xmlns="http://www.w3.org/2000/svg" xmlns:xlink="http://www.w3.org/1999/xlink" width="96" height="96"><defs><linearGradient id="a" x2="1" gradientTransform="scale(28.74394 -28.74394) rotate(-45 -4.962 -69.747)" gradientUnits="userSpaceOnUse"><stop offset="0" stop-color="#d0e8f8"/><stop offset="1" stop-color="#e2eef9"/></linearGradient><linearGradient id="b" x2="1" gradientTransform="matrix(10.49946 0 0 -10.49946 1341.917 675.625)" gradientUnits="userSpaceOnUse"><stop offset="0" stop-color="#00aeef"/><stop offset="1" stop-color="#00bdf2"/></linearGradient><linearGradient id="c" x2="1" gradientTransform="matrix(14.00044 0 0 -14.00044 1349.057 672.593)" gradientUnits="userSpaceOnUse"><stop offset="0" stop-color="#00aeef"/><stop offset="1" stop-color="#00bdf2"/></linearGradient><linearGradient id="l" x2="1" gradientTransform="matrix(10.00044 0 0 -10.00044 1373.838 676.057)" gradientUnits="userSpaceOnUse"><stop offset="0" stop-color="#00aeef"/><stop offset="1" stop-color="#00bdf2"/></linearGradient><linearGradient id="n" x2="1" gradientTransform="matrix(12.00044 0 0 -12.00044 1361.947 674.325)" gradientUnits="userSpaceOnUse"><stop offset="0" stop-color="#00aeef"/><stop offset="1" stop-color="#00bdf2"/></linearGradient><linearGradient id="f" x2="1" gradientTransform="scale(28.74394 -28.74394) rotate(-45 -4.962 -69.747)" gradientUnits="userSpaceOnUse" xlink:href="#a"/><linearGradient id="h" x2="1" gradientTransform="matrix(10.49946 0 0 -10.49946 1341.917 675.625)" gradientUnits="userSpaceOnUse" xlink:href="#b"/><linearGradient id="j" x2="1" gradientTransform="matrix(14.00044 0 0 -14.00044 1349.057 672.593)" gradientUnits="userSpaceOnUse" xlink:href="#c"/><clipPath id="d"><path d="M0 943.388h1828.656V0H0z"/></clipPath><clipPath id="e"><path d="M1376.881 707.171c-.053.001-.105.004-.158.004a8.288 8.288 0 0 1-8.288-8.288 8.287 8.287 0 0 1 8.288-8.287h20.599a6.697 6.697 0 0 1 0 13.393c-.023 0-.046-.004-.068-.004-.596 5.34-5.123 9.492-10.622 9.492-4.343 0-8.078-2.591-9.751-6.31"/></clipPath><clipPath id="g"><path d="M1348.684 682.253l-6.499-11.256a2 2 0 0 1 .732-2.732 1.998 1.998 0 0 1 2.732.732l6.499 11.256c.552.957.224 2.18-.732 2.733a2 2 0 0 1-2.732-.733"/></clipPath><clipPath id="i"><path d="M1359.325 682.253l-10-17.32a2 2 0 0 1 .733-2.732 1.998 1.998 0 0 1 2.731.732l10 17.32a2 2 0 0 1-.732 2.733 2.002 2.002 0 0 1-2.732-.733"/></clipPath><clipPath id="k"><path d="M1380.107 682.253l-6.001-10.391a2 2 0 0 1 1.73-3.001c.691 0 1.365.359 1.735 1l5.999 10.392a2 2 0 0 1-.732 2.733 1.997 1.997 0 0 1-2.731-.733"/></clipPath><clipPath id="m"><path d="M1370.216 682.253l-8-13.855a2.002 2.002 0 0 1 .731-2.733 1.998 1.998 0 0 1 2.733.733l8 13.855c.552.957.224 2.18-.732 2.733a1.999 1.999 0 0 1-2.732-.733"/></clipPath></defs><g fill="#fff" clip-path="url(#d)" transform="matrix(1.33333 0 0 -1.33333 -1779.413 973.98)"><path d="M1383.105 690.6c5.889 0 10.664 4.774 10.664 10.664 0 5.889-4.775 10.664-10.664 10.664-.037 0-.073-.006-.11-.006-.948 8.504-8.157 15.116-16.914 15.116-6.916 0-12.864-4.125-15.528-10.048-.085.002-.168.006-.253.006-7.29 0-13.198-5.91-13.198-13.198 0-7.29 5.909-13.198 13.198-13.198"/></g><g clip-path="url(#e)" transform="matrix(1.33333 0 0 -1.33333 -1779.413 973.98)"><path fill="url(#f)" d="M1376.881 707.171c-.053.001-.105.004-.158.004a8.288 8.288 0 0 1-8.288-8.288 8.287 8.287 0 0 1 8.288-8.287h20.599a6.697 6.697 0 0 1 0 13.393c-.023 0-.046-.004-.068-.004-.596 5.34-5.123 9.492-10.622 9.492-4.343 0-8.078-2.591-9.751-6.31"/></g><g clip-path="url(#g)" transform="matrix(1.33333 0 0 -1.33333 -1779.413 973.98)"><path fill="url(#h)" d="M1348.684 682.253l-6.499-11.256a2 2 0 0 1 .732-2.732 1.998 1.998 0 0 1 2.732.732l6.499 11.256c.552.957.224 2.18-.732 2.733a2 2 0 0 1-2.732-.733"/></g><g clip-path="url(#i)" transform="matrix(1.33333 0 0 -1.33333 -1779.413 973.98)"><path fill="url(#j)" d="M1359.325 682.253l-10-17.32a2 2 0 0 1 .733-2.732 1.998 1.998 0 0 1 2.731.732l10 17.32a2 2 0 0 1-.732 2.733 2.002 2.002 0 0 1-2.732-.733"/></g><g clip-path="url(#k)" transform="matrix(1.33333 0 0 -1.33333 -1779.413 973.98)"><path fill="url(#l)" d="M1380.107 682.253l-6.001-10.391a2 2 0 0 1 1.73-3.001c.691 0 1.365.359 1.735 1l5.999 10.392a2 2 0 0 1-.732 2.733 1.997 1.997 0 0 1-2.731-.733"/></g><g clip-path="url(#m)" transform="matrix(1.33333 0 0 -1.33333 -1779.413 973.98)"><path fill="url(#n)" d="M1370.216 682.253l-8-13.855a2.002 2.002 0 0 1 .731-2.733 1.998 1.998 0 0 1 2.733.733l8 13.855c.552.957.224 2.18-.732 2.733a1.999 1.999 0 0 1-2.732-.733"/></g><path fill="none" d="M.001-.003h96v96h-96z" paint-order="stroke fill markers"/></svg>