<svg xmlns="http://www.w3.org/2000/svg" xmlns:xlink="http://www.w3.org/1999/xlink" width="96" height="96"><defs><clipPath id="c"><path d="M312.685 556.184c0-7.16 5.804-12.963 12.964-12.963 7.158 0 12.963 5.803 12.963 12.963 0 7.159-5.805 12.963-12.963 12.963-7.16 0-12.964-5.804-12.964-12.963"/></clipPath><clipPath id="e"><path d="M0 943.388h1828.656V0H0z"/></clipPath><clipPath id="f"><path d="M315.904 545.066c-.052.001-.104.004-.157.004a8.288 8.288 0 0 1 0-16.576h20.599a6.696 6.696 0 0 1 0 13.392l-.068-.002c-.596 5.339-5.123 9.492-10.622 9.492-4.342 0-8.078-2.591-9.752-6.31"/></clipPath><clipPath id="h"><path d="M286.924 682.682l-2.888-4.999a2 2 0 0 1 .733-2.732 1.999 1.999 0 0 1 2.732.732l2.888 5a2.001 2.001 0 0 1-.733 2.732 1.997 1.997 0 0 1-2.732-.733"/></clipPath><clipPath id="i"><path d="M303.035 682.682l-2.887-4.999a2 2 0 0 1 .733-2.732 2 2 0 0 1 2.732.732l2.887 5a2.001 2.001 0 0 1-.732 2.732 2 2 0 0 1-2.733-.733"/></clipPath><clipPath id="j"><path d="M319.147 682.682l-2.887-4.999a2 2 0 0 1 .733-2.732 2 2 0 0 1 2.732.732l2.887 5a2 2 0 0 1-1.732 3.001 2 2 0 0 1-1.733-1.002"/></clipPath><clipPath id="k"><path d="M291.923 675.503l-2.886-5a2 2 0 0 1 .732-2.732 2.002 2.002 0 0 1 2.733.732l2.886 5a2 2 0 0 1-.733 2.732 1.999 1.999 0 0 1-2.732-.732"/></clipPath><clipPath id="l"><path d="M308.536 675.503l-2.887-5a2 2 0 0 1 .733-2.732 2 2 0 0 1 2.732.732l2.886 5a2 2 0 0 1-.731 2.732 1.997 1.997 0 0 1-2.733-.732"/></clipPath><clipPath id="m"><path d="M325.147 675.503l-2.887-5a2.001 2.001 0 0 1 .733-2.732 2 2 0 0 1 2.732.732l2.887 5a2 2 0 0 1-1.732 3.001 1.999 1.999 0 0 1-1.733-1.001"/></clipPath><linearGradient id="a" x2="1" gradientTransform="scale(25.92643 -25.92643) rotate(-45 -19.365 -25.284)" gradientUnits="userSpaceOnUse"><stop offset="0" stop-color="#fdb727"/><stop offset="1" stop-color="#ffce22"/></linearGradient><linearGradient id="b" x2="1" gradientTransform="scale(28.74394 -28.74394) rotate(-45 -16.61 -22.372)" gradientUnits="userSpaceOnUse"><stop offset="0" stop-color="#d0e8f8"/><stop offset="1" stop-color="#e2eef9"/></linearGradient><linearGradient id="d" x2="1" gradientTransform="scale(25.92643 -25.92643) rotate(-45 -19.365 -25.284)" gradientUnits="userSpaceOnUse" xlink:href="#a"/><linearGradient id="g" x2="1" gradientTransform="scale(28.74394 -28.74394) rotate(-45 -16.61 -22.372)" gradientUnits="userSpaceOnUse" xlink:href="#b"/></defs><path fill="none" d="M0-.003h96v96H0z" paint-order="stroke fill markers"/><g clip-path="url(#c)" transform="matrix(1.33333 0 0 -1.33333 -364.778 765.511)"><path fill="url(#d)" d="M312.685 556.184c0-7.16 5.804-12.963 12.964-12.963 7.158 0 12.963 5.803 12.963 12.963 0 7.159-5.805 12.963-12.963 12.963-7.16 0-12.964-5.804-12.964-12.963"/></g><g clip-path="url(#e)" transform="matrix(1.33333 0 0 -1.33333 -364.778 765.511)"><path fill="#fff" d="M322.129 528.494c5.889 0 10.664 4.774 10.664 10.664s-4.775 10.664-10.664 10.664c-.037 0-.072-.005-.11-.006-.948 8.504-8.157 15.117-16.914 15.117-6.915 0-12.864-4.126-15.528-10.048-.085.001-.168.006-.253.006-7.29 0-13.198-5.909-13.198-13.198 0-7.29 5.909-13.199 13.198-13.199"/></g><g clip-path="url(#f)" transform="matrix(1.33333 0 0 -1.33333 -364.778 765.511)"><path fill="url(#g)" d="M315.904 545.066c-.052.001-.104.004-.157.004a8.288 8.288 0 0 1 0-16.576h20.599a6.696 6.696 0 0 1 0 13.392l-.068-.002c-.596 5.339-5.123 9.492-10.622 9.492-4.342 0-8.078-2.591-9.752-6.31"/></g><g fill="#fff" clip-path="url(#h)" transform="matrix(1.43463 0 0 -1.43463 -390.82 1046.967)"><path d="M286.924 682.682l-2.888-4.999a2 2 0 0 1 .733-2.732 1.999 1.999 0 0 1 2.732.732l2.888 5a2.001 2.001 0 0 1-.733 2.732 1.997 1.997 0 0 1-2.732-.733"/></g><g fill="#fff" clip-path="url(#i)" transform="matrix(1.43463 0 0 -1.43463 -390.82 1046.967)"><path d="M303.035 682.682l-2.887-4.999a2 2 0 0 1 .733-2.732 2 2 0 0 1 2.732.732l2.887 5a2.001 2.001 0 0 1-.732 2.732 2 2 0 0 1-2.733-.733"/></g><g fill="#fff" clip-path="url(#j)" transform="matrix(1.43463 0 0 -1.43463 -390.82 1046.967)"><path d="M319.147 682.682l-2.887-4.999a2 2 0 0 1 .733-2.732 2 2 0 0 1 2.732.732l2.887 5a2 2 0 0 1-1.732 3.001 2 2 0 0 1-1.733-1.002"/></g><g fill="#fff" clip-path="url(#k)" transform="matrix(1.43463 0 0 -1.43463 -390.82 1046.967)"><path d="M291.923 675.503l-2.886-5a2 2 0 0 1 .732-2.732 2.002 2.002 0 0 1 2.733.732l2.886 5a2 2 0 0 1-.733 2.732 1.999 1.999 0 0 1-2.732-.732"/></g><g fill="#fff" clip-path="url(#l)" transform="matrix(1.43463 0 0 -1.43463 -390.82 1046.967)"><path d="M308.536 675.503l-2.887-5a2 2 0 0 1 .733-2.732 2 2 0 0 1 2.732.732l2.886 5a2 2 0 0 1-.731 2.732 1.997 1.997 0 0 1-2.733-.732"/></g><g fill="#fff" clip-path="url(#m)" transform="matrix(1.43463 0 0 -1.43463 -390.82 1046.967)"><path d="M325.147 675.503l-2.887-5a2.001 2.001 0 0 1 .733-2.732 2 2 0 0 1 2.732.732l2.887 5a2 2 0 0 1-1.732 3.001 1.999 1.999 0 0 1-1.733-1.001"/></g></svg>