<svg xmlns="http://www.w3.org/2000/svg" xmlns:xlink="http://www.w3.org/1999/xlink" width="96" height="96"><defs><linearGradient id="e" x2="1" gradientTransform="scale(27.16368 -27.16368) rotate(-45 12.798 -57.24)" gradientUnits="userSpaceOnUse"><stop offset="0" stop-color="#fdb727"/><stop offset="1" stop-color="#ffce22"/></linearGradient><linearGradient id="a" x2="1" gradientTransform="scale(28.74394 -28.74394) rotate(-45 -7.652 -26.119)" gradientUnits="userSpaceOnUse"><stop offset="0" stop-color="#d0e8f8"/><stop offset="1" stop-color="#e2eef9"/></linearGradient><linearGradient id="b" x2="1" gradientTransform="matrix(9.66123 0 0 -9.66123 437.972 364.871)" gradientUnits="userSpaceOnUse"><stop offset="0" stop-color="#d0e8f8"/><stop offset="1" stop-color="#e2eef9"/></linearGradient><linearGradient id="c" x2="1" gradientTransform="matrix(9.66123 0 0 -9.66123 465.884 364.871)" gradientUnits="userSpaceOnUse"><stop offset="0" stop-color="#d0e8f8"/><stop offset="1" stop-color="#e2eef9"/></linearGradient><linearGradient id="d" x2="1" gradientTransform="matrix(9.66123 0 0 -9.66123 452.41 357.883)" gradientUnits="userSpaceOnUse"><stop offset="0" stop-color="#d0e8f8"/><stop offset="1" stop-color="#e2eef9"/></linearGradient><linearGradient id="j" x2="1" gradientTransform="scale(28.74394 -28.74394) rotate(-45 -7.652 -26.119)" gradientUnits="userSpaceOnUse" xlink:href="#a"/><linearGradient id="l" x2="1" gradientTransform="matrix(9.66123 0 0 -9.66123 437.972 364.871)" gradientUnits="userSpaceOnUse" xlink:href="#b"/><linearGradient id="n" x2="1" gradientTransform="matrix(9.66123 0 0 -9.66123 465.884 364.871)" gradientUnits="userSpaceOnUse" xlink:href="#c"/><linearGradient id="p" x2="1" gradientTransform="matrix(9.66123 0 0 -9.66123 452.41 357.883)" gradientUnits="userSpaceOnUse" xlink:href="#d"/><linearGradient id="g" x2="1" gradientTransform="scale(27.16368 -27.16368) rotate(-45 12.798 -57.24)" gradientUnits="userSpaceOnUse" xlink:href="#e"/><clipPath id="h"><path d="M0 943.388h1828.656V0H0z"/></clipPath><clipPath id="i"><path d="M467.474 394.556c-.054.001-.106.005-.16.005a8.289 8.289 0 0 1-8.287-8.288 8.288 8.288 0 0 1 8.287-8.288h20.6a6.696 6.696 0 0 1 0 13.392l-.069-.003c-.595 5.34-5.122 9.492-10.621 9.492a10.688 10.688 0 0 1-9.75-6.31"/></clipPath><clipPath id="k"><path d="M437.971 364.871a4.83 4.83 0 1 1 9.662 0 4.83 4.83 0 1 1-9.662 0"/></clipPath><clipPath id="m"><path d="M465.884 364.871a4.831 4.831 0 0 1 9.662 0 4.83 4.83 0 0 1-4.831 4.83 4.83 4.83 0 0 1-4.831-4.83"/></clipPath><clipPath id="o"><path d="M452.409 357.884a4.831 4.831 0 0 1 9.662 0 4.83 4.83 0 1 1-9.662 0"/></clipPath><clipPath id="f"><path d="M1208.592 229.026l-5.267-9.123c-.825-1.428-.154-2.499 1.492-2.378l4.302.315c1.646.122 2.348-.965 1.56-2.415l-4.785-8.806c-.788-1.45-.39-1.778.884-.73l17.302 14.229c1.274 1.048.968 1.836-.679 1.752l-6.612-.338c-1.647-.084-2.32 1.016-1.496 2.445l2.91 5.04c.825 1.428.15 2.598-1.5 2.601h-3.611c-1.65 0-3.676-1.166-4.5-2.594"/></clipPath></defs><g clip-path="url(#f)" transform="matrix(1.33333 0 0 -1.33333 -1554.56 355.264)"><path fill="url(#g)" d="M1208.592 229.026l-5.267-9.123c-.825-1.428-.154-2.499 1.492-2.378l4.302.315c1.646.122 2.348-.965 1.56-2.415l-4.785-8.806c-.788-1.45-.39-1.778.884-.73l17.302 14.229c1.274 1.048.968 1.836-.679 1.752l-6.612-.338c-1.647-.084-2.32 1.016-1.496 2.445l2.91 5.04c.825 1.428.15 2.598-1.5 2.601l-3.611.002c-1.65.002-3.676-1.166-4.5-2.594"/></g><g clip-path="url(#h)" transform="matrix(1.33333 0 0 -1.33333 -566.869 559.651)"><path fill="#fff" d="M473.696 377.985c5.89 0 10.664 4.774 10.664 10.664s-4.774 10.664-10.664 10.664c-.037 0-.072-.005-.109-.006-.949 8.504-8.158 15.117-16.915 15.117-6.915 0-12.864-4.126-15.528-10.048-.085 0-.168.006-.253.006-7.289 0-13.198-5.91-13.198-13.2 0-7.289 5.91-13.198 13.198-13.198"/></g><g clip-path="url(#i)" transform="matrix(1.33333 0 0 -1.33333 -566.869 559.651)"><path fill="url(#j)" d="M467.474 394.556c-.054.001-.106.005-.16.005a8.289 8.289 0 0 1-8.287-8.288 8.288 8.288 0 0 1 8.287-8.288h20.6a6.696 6.696 0 0 1 0 13.392l-.069-.003c-.595 5.34-5.122 9.492-10.621 9.492a10.688 10.688 0 0 1-9.75-6.31"/></g><g clip-path="url(#k)" transform="matrix(1.33333 0 0 -1.33333 -575.403 556.494)"><path fill="url(#l)" d="M437.971 364.871a4.83 4.83 0 1 1 9.662 0 4.83 4.83 0 1 1-9.662 0"/></g><g clip-path="url(#m)" transform="matrix(1.33333 0 0 -1.33333 -588.62 556.494)"><path fill="url(#n)" d="M465.884 364.871a4.831 4.831 0 0 1 9.662 0 4.83 4.83 0 0 1-4.831 4.83 4.83 4.83 0 0 1-4.831-4.83"/></g><g clip-path="url(#o)" transform="matrix(1.33333 0 0 -1.33333 -582.653 561.178)"><path fill="url(#p)" d="M452.409 357.884a4.831 4.831 0 0 1 9.662 0 4.83 4.83 0 1 1-9.662 0"/></g><path fill="none" d="M0-.003h96v96H0z" paint-order="stroke fill markers"/></svg>