<svg xmlns="http://www.w3.org/2000/svg" xmlns:xlink="http://www.w3.org/1999/xlink" width="96" height="96"><defs><linearGradient id="a" x2="1" gradientTransform="scale(27.16368 -27.16368) rotate(-45 -17.3 -22.364)" gradientUnits="userSpaceOnUse"><stop offset="0" stop-color="#fdb727"/><stop offset="1" stop-color="#ffce22"/></linearGradient><linearGradient id="b" x2="1" gradientTransform="scale(25.92643 -25.92643) rotate(-45 6.2 -47.7)" gradientUnits="userSpaceOnUse"><stop offset="0" stop-color="#fdb727"/><stop offset="1" stop-color="#ffce22"/></linearGradient><linearGradient id="c" x2="1" gradientTransform="scale(28.74394 -28.74394) rotate(-45 6.543 -42.61)" gradientUnits="userSpaceOnUse"><stop offset="0" stop-color="#d0e8f8"/><stop offset="1" stop-color="#e2eef9"/></linearGradient><linearGradient id="d" x2="1" gradientTransform="matrix(9.66123 0 0 -9.66123 437.972 364.871)" gradientUnits="userSpaceOnUse"><stop offset="0" stop-color="#d0e8f8"/><stop offset="1" stop-color="#e2eef9"/></linearGradient><linearGradient id="e" x2="1" gradientTransform="matrix(9.66123 0 0 -9.66123 465.884 364.871)" gradientUnits="userSpaceOnUse"><stop offset="0" stop-color="#d0e8f8"/><stop offset="1" stop-color="#e2eef9"/></linearGradient><linearGradient id="f" x2="1" gradientTransform="matrix(9.66123 0 0 -9.66123 452.41 357.883)" gradientUnits="userSpaceOnUse"><stop offset="0" stop-color="#d0e8f8"/><stop offset="1" stop-color="#e2eef9"/></linearGradient><linearGradient id="h" x2="1" gradientTransform="scale(27.16368 -27.16368) rotate(-45 -17.3 -22.364)" gradientUnits="userSpaceOnUse" xlink:href="#a"/><linearGradient id="j" x2="1" gradientTransform="scale(25.92643 -25.92643) rotate(-45 6.2 -47.7)" gradientUnits="userSpaceOnUse" xlink:href="#b"/><linearGradient id="l" x2="1" gradientTransform="scale(28.74394 -28.74394) rotate(-45 6.543 -42.61)" gradientUnits="userSpaceOnUse" xlink:href="#c"/><linearGradient id="n" x2="1" gradientTransform="matrix(9.66123 0 0 -9.66123 437.972 364.871)" gradientUnits="userSpaceOnUse" xlink:href="#d"/><linearGradient id="p" x2="1" gradientTransform="matrix(9.66123 0 0 -9.66123 465.884 364.871)" gradientUnits="userSpaceOnUse" xlink:href="#e"/><linearGradient id="r" x2="1" gradientTransform="matrix(9.66123 0 0 -9.66123 452.41 357.883)" gradientUnits="userSpaceOnUse" xlink:href="#f"/><clipPath id="g"><path d="M299.226 529.637l-5.267-9.121c-.825-1.429-.154-2.499 1.492-2.378l4.302.316c1.645.121 2.347-.966 1.56-2.416l-4.786-8.806c-.787-1.45-.389-1.779.885-.73l17.302 14.229c1.274 1.048.968 1.837-.679 1.752l-6.611-.338c-1.648-.085-2.321 1.015-1.497 2.444l2.91 5.04c.825 1.429.15 2.599-1.5 2.6l-3.611.004c-1.651.002-3.676-1.166-4.5-2.596"/></clipPath><clipPath id="m"><path d="M437.971 364.871a4.83 4.83 0 1 1 9.662 0 4.83 4.83 0 1 1-9.662 0"/></clipPath><clipPath id="o"><path d="M465.884 364.871a4.831 4.831 0 0 1 9.662 0 4.83 4.83 0 0 1-4.831 4.83 4.83 4.83 0 0 1-4.831-4.83"/></clipPath><clipPath id="q"><path d="M452.409 357.884a4.831 4.831 0 0 1 9.662 0 4.83 4.83 0 1 1-9.662 0"/></clipPath><clipPath id="i"><path d="M917.757 257.718c0-7.159 5.805-12.964 12.964-12.964 7.159 0 12.963 5.805 12.963 12.964 0 7.159-5.804 12.962-12.963 12.962-7.159 0-12.964-5.803-12.964-12.962"/></clipPath><clipPath id="k"><path d="M922.177 244.882h-.159a8.287 8.287 0 0 1 0-16.574h20.6a6.696 6.696 0 0 1 0 13.392h-.069c-.596 5.34-5.122 9.493-10.622 9.493-4.341 0-8.077-2.591-9.75-6.311"/></clipPath></defs><path fill="none" d="M0-.003h96v96H0z" paint-order="stroke fill markers"/><g clip-path="url(#g)" transform="matrix(1.33333 0 0 -1.33333 -352.071 757.932)"><path fill="url(#h)" d="M299.226 529.637l-5.267-9.121c-.825-1.429-.154-2.499 1.492-2.378l4.302.316c1.645.121 2.347-.966 1.56-2.416l-4.786-8.806c-.787-1.45-.389-1.779.885-.73l17.302 14.229c1.274 1.048.968 1.837-.679 1.752l-6.611-.338c-1.648-.085-2.321 1.015-1.497 2.444l2.91 5.04c.825 1.429.15 2.599-1.5 2.6l-3.611.004c-1.651.002-3.676-1.166-4.5-2.596"/></g><g clip-path="url(#i)" transform="matrix(1.33333 0 0 -1.33333 -1173.141 363.614)"><path fill="url(#j)" d="M917.757 257.718c0-7.159 5.805-12.964 12.964-12.964 7.159 0 12.963 5.805 12.963 12.964 0 7.159-5.804 12.962-12.963 12.962-7.159 0-12.964-5.803-12.964-12.962"/></g><path fill="#fff" d="M64.726 59.2c7.852 0 14.219-6.365 14.219-14.219 0-7.853-6.367-14.218-14.219-14.218-.049 0-.096.006-.145.008-1.265-11.339-10.877-20.156-22.553-20.156-9.22 0-17.152 5.501-20.704 13.397-.114-.001-.224-.007-.338-.007-9.718 0-17.597 7.88-17.597 17.598S11.268 59.2 20.986 59.2"/><g clip-path="url(#k)" transform="matrix(1.33333 0 0 -1.33333 -1173.141 363.614)"><path fill="url(#l)" d="M922.177 244.882c-.053.001-.105.003-.159.003a8.287 8.287 0 0 1 0-16.574h20.6a6.696 6.696 0 0 1 0 13.392c-.023 0-.045-.003-.069-.003-.596 5.34-5.122 9.493-10.622 9.493-4.341 0-8.077-2.591-9.75-6.311"/></g><g clip-path="url(#m)" transform="matrix(1.33333 0 0 -1.33333 -574.403 560.346)"><path fill="url(#n)" d="M437.971 364.871a4.83 4.83 0 1 1 9.662 0 4.83 4.83 0 1 1-9.662 0"/></g><g clip-path="url(#o)" transform="matrix(1.33333 0 0 -1.33333 -560.62 567.346)"><path fill="url(#p)" d="M465.884 364.871a4.831 4.831 0 0 1 9.662 0 4.83 4.83 0 0 1-4.831 4.83 4.83 4.83 0 0 1-4.831-4.83"/></g><g clip-path="url(#q)" transform="matrix(1.33333 0 0 -1.33333 -577.653 564.03)"><path fill="url(#r)" d="M452.409 357.884a4.831 4.831 0 0 1 9.662 0 4.83 4.83 0 1 1-9.662 0"/></g></svg>