<svg xmlns="http://www.w3.org/2000/svg" xmlns:xlink="http://www.w3.org/1999/xlink" width="96" height="96"><defs><linearGradient id="a" x2="1" gradientTransform="scale(40.91009 -40.91009) rotate(-45 -.164 -31.228)" gradientUnits="userSpaceOnUse"><stop offset="0" stop-color="#fdb727"/><stop offset="1" stop-color="#ffce22"/></linearGradient><linearGradient id="c" x2="1" gradientTransform="scale(40.91009 -40.91009) rotate(-45 -.164 -31.228)" gradientUnits="userSpaceOnUse" xlink:href="#a"/><clipPath id="b"><path d="M895.401 393.404c0-11.296 9.157-20.454 20.455-20.454 11.297 0 20.455 9.158 20.455 20.454 0 11.298-9.158 20.456-20.455 20.456-11.298 0-20.455-9.158-20.455-20.456"/></clipPath></defs><g clip-path="url(#b)" transform="matrix(1.33333 0 0 -1.33333 -1173.141 572.54)"><path fill="url(#c)" d="M895.401 393.404c0-11.296 9.157-20.454 20.455-20.454 11.297 0 20.455 9.158 20.455 20.454 0 11.298-9.158 20.456-20.455 20.456-11.298 0-20.455-9.158-20.455-20.456"/></g><path fill="none" d="M.004.001h96v96h-96z" paint-order="stroke fill markers"/></svg>