<svg xmlns="http://www.w3.org/2000/svg" width="96" height="96"><defs><linearGradient id="b" x2="1" gradientTransform="matrix(40.95254 0 0 -40.95254 1200.113 381.379)" gradientUnits="userSpaceOnUse"><stop offset="0" stop-color="#00aeef"/><stop offset="1" stop-color="#00bdf2"/></linearGradient><linearGradient id="d" x2="1" gradientTransform="matrix(65.44842 0 0 -65.44842 1186.268 390.21)" gradientUnits="userSpaceOnUse"><stop offset="0" stop-color="#00aeef"/><stop offset="1" stop-color="#00bdf2"/></linearGradient><linearGradient id="f" x2="1" gradientTransform="matrix(30.30216 0 0 -30.30216 1210.764 405.43)" gradientUnits="userSpaceOnUse"><stop offset="0" stop-color="#00aeef"/><stop offset="1" stop-color="#00bdf2"/></linearGradient><clipPath id="a"><path d="M1235.857 386.517c-.022.001-.043.007-.065.007h-34.081a1.598 1.598 0 0 1 0-3.196h29.453a5.114 5.114 0 0 1-.388-1.949 5.144 5.144 0 1 1 10.29 0 5.145 5.145 0 0 1-5.145 5.145c-.022 0-.043-.006-.064-.007"/></clipPath><clipPath id="c"><path d="M1246.507 395.348c-.022 0-.043.007-.065.007h-58.577a1.598 1.598 0 0 1 0-3.195h53.95a5.104 5.104 0 0 1-.388-1.95 5.144 5.144 0 0 1 10.288 0 5.145 5.145 0 0 1-5.144 5.145c-.022 0-.042-.007-.064-.007"/></clipPath><clipPath id="e"><path d="M1230.776 405.431c0-.691.141-1.348.388-1.95h-18.803a1.597 1.597 0 1 1 0-3.195h23.431c.022 0 .043.005.065.007.021 0 .042-.007.064-.007a5.145 5.145 0 0 1 0 10.29 5.146 5.146 0 0 1-5.145-5.145"/></clipPath></defs><path fill="none" d="M-.006 0h96v96h-96z" paint-order="stroke fill markers"/><g clip-path="url(#a)" transform="matrix(1.33333 0 0 -1.33333 -1577.323 572.538)"><path fill="url(#b)" d="M1235.857 386.517c-.022.001-.043.007-.065.007h-34.081a1.598 1.598 0 0 1 0-3.196h29.453a5.114 5.114 0 0 1-.388-1.949 5.144 5.144 0 1 1 10.29 0 5.145 5.145 0 0 1-5.145 5.145c-.022 0-.043-.006-.064-.007"/></g><g clip-path="url(#c)" transform="matrix(1.33333 0 0 -1.33333 -1577.323 572.538)"><path fill="url(#d)" d="M1246.507 395.348c-.022 0-.043.007-.065.007h-58.577a1.598 1.598 0 0 1 0-3.195h53.95a5.104 5.104 0 0 1-.388-1.95 5.144 5.144 0 0 1 10.288 0 5.145 5.145 0 0 1-5.144 5.145c-.022 0-.042-.007-.064-.007"/></g><g clip-path="url(#e)" transform="matrix(1.33333 0 0 -1.33333 -1577.323 572.538)"><path fill="url(#f)" d="M1230.776 405.431c0-.691.141-1.348.388-1.95h-18.803a1.597 1.597 0 1 1 0-3.195h23.431c.022 0 .043.005.065.007.021 0 .042-.007.064-.007a5.145 5.145 0 0 1 0 10.29 5.146 5.146 0 0 1-5.145-5.145"/></g></svg>